<?xml version="1.0" encoding="UTF-8"?>
<svg version="1.1" viewBox="0 0 1600 1077" width="609" height="410" xmlns="http://www.w3.org/2000/svg">
<path transform="translate(487)" d="m0 0h43v18l-5 3-17-7 1 41 21-10 24-14 15-8 12-3 13-1 16 2 12 4 9 6 6 7 1 3v21l-1 6v230l15-8 53-31 24-14 28-16 16-10 1-1v-52l-15-8-5-6v-98l1-6 6 1 16 9 19 11 5 4 2 4v97l-1 5-7-1-15-8v41l10-3 18-10 21-12 13-6 14-3h19l14 3 12 6 7 8 2 5-1 152-1 102 29-16 24-14 30-16 23-13 19-12 12-7 1-9v-44l-6-2-11-6-3-6-1-30v-33l1-41 5 1 27 14 11 7 5 5v103l-1 2-6-1-12-6h-2l-1 42 17-9 20-12 24-13 10-3 14-2 2-10 5-10 13-12 6-4h2l2-5 7-8 11-11 9-11 12-13 9-11 9-9 9-11 10-14 12-19 11-19 21-42 7-10 9-8 17-8-2-9-1-10v-27l2-6-1-7v-10l4-9 6-8 11-7 8-4h28l13 8 8 7 5 8 3 10v17l-3 14-5 15-6 8-3 6 1 7 12 9 10 9 12 12 8 7 13 13 7 11 5 13 3 15 2 24 2 65 5 88v20l-3 3-1 3v8l3 14 4 4 10-7 15-8 7-1 17 9 5 4 1 3v111l-14 9-21 12-20 12-16 10v54l12 11 8 12 3 10v16l-4 11-6 10-13 13-1 10v170l-3 8-9 8-25 14-29 17-21 13-23 13-28 17-22 12-19 11-24 13-16 9-27 15-29 15-22 11-17 3h-59l-39 4-10 2-2 3h-103l-8-4v-3l6-3 20-1-18-2 1-3 19-13 2-5v-170l-16 8-26 15-29 16-53 31-32 19-17 11-19 11-13 6-15 4h-19l-12-3-23-11-15-9-27-16-10-8-5-6-1-10 4-7 9-8 42-24 5-3 1-5v-132l-1-35-7 4-11 8-29 17-28 16-18 10-30 15-4 6-2 18-4 57-1 16v29l7 3 15 5 16 8 13 9 10 10 6 10 4 13v12l-4 12-9 13-10 9-14 9-19 9-21 6-12 2-24 2h-24l-24-3-22-6-19-9-12-8-10-9-8-9-5-10-2-8v-14l4-11 7-11 9-9 13-9 6-3 8-10 2-2 1-12v-13l-2-13-7-33-2-13-5-5-46-26-12-9-4-7v-8l3-6 7-6 20-12 18-10 10-6h2l-1-179-16 10-29 19-15 9-25 14-24 14-25 14-27 16-28 17-17 8-12 3-7 1h-10l-15-3-19-9-20-12-21-12-14-9-7-7-2-6 1-8 6-8 17-11 25-14 11-6 1-6v-265l-1-7v-13l3-8 5-6 16-10 29-17 10-5 7-3 18-11 16-10 24-13 44-26 17-10 25-14 17-10 20-12 49-28 23-13 24-14 22-13 1-1 1-52-6-2-9-5zm800 222-7 7-10 13-11 13-11 12-7 7-13 10-16 12-16 13-2 2-5-1-3-2h-3l-3 9-7 12-2 5v7l5 5 4 6 2 11v10l-2 9 1 228 6-1 30-16 23-13 28-17 22-12 2-2 1-5v-31l-4-35-7-51-2-19-1-25-3-3 1-18 9-79 3-44v-17zm126 53v43l5 77 1 12-7 3-1 3v34l1 3 5-1 10-9 1-9-2-8v-10l4-7 6-7-1-8-5-28-6-40-4-30-3-17zm-68 204-1 15v22l6-1 4-3v-7l-4-23-2-3zm-846 338-10 8-10 6-10 4-14 4-1 1-4 38-1 12v14l1 7 1 1 10-1 18-2 20-1 2-1v-11l-3-13-1-6v-18l4-28v-9l-1-5z" fill="#CCD4D8"/>
<path transform="translate(487)" d="m0 0h43v18l-5 3-17-7 1 41 21-10 24-14 15-8 12-3 13-1 16 2 12 4 9 6 6 7 1 3v21l-1 6v230l15-8 53-31 24-14 28-16 16-10 1-1v-52l-15-8-5-6v-98l1-6 6 1 16 9 19 11 5 4 2 4v97l-1 5-7-1-15-8v41l10-3 18-10 21-12 13-6 14-3h19l14 3 12 6 7 8 2 5-1 152-1 103-16 9-9 6-15 9-9 5-36 21h-2v2l-8 4-1 1-1 38h-4l-1-34-6 3h-4l1-14-9-6-1 26-9 6-17 9-17 10-6 2 7 3 10 1 7 2 19 3 6 3 10 18 4 6 1 4v10l-9 6-14 8-22 13-13 7-12 3h-22l-16-4-8-4-7-2-4-3-9-3-3-3-1-11-14 7-24 14-18 10-12 7-2-3 9-6 10-5 25-15 15-8 6-6 2-15 1-4h-6l-1 15-4 1v2l-6 1h-10v-2l-4-2v-8h2v-5l8-3-43-2-14-2-13-4-11-8-10-10-8-7-3 35 10 33 3 16 5 28 2 17v46l-3 30-3 23 9-5 9-3 11-7 9-5 6-4 3-1 4-4 7-3 7-5 7-4 7-3 8-5 6-4 7-3 6-4 7-5 4-2 8-1-1 4-3 1v2l-11 6-9 5h-2v2l-7 2v2l-8 4h-2v2l-7 3-7 4h-2l-1 3-7 3-9 5h-2l-1 3-7 3-24 14-7 4-8 7-2 4-2 18-4 57-1 16v29l7 3 15 5 16 8 13 9 10 10 6 10 4 13v12l-4 12-9 13-10 9-14 9-19 9-21 6-12 2-24 2h-24l-24-3-22-6-19-9-12-8-10-9-8-9-5-10-2-8v-14l4-11 7-11 9-9 13-9 6-3 8-10 2-2 1-12v-13l-2-13-7-33-2-13-5-5-46-26-12-9-4-7v-8l3-6 7-6 20-12 18-10 10-6h2l-1-179-16 10-29 19-15 9-25 14-24 14-25 14-27 16-28 17-17 8-12 3-7 1h-10l-15-3-19-9-20-12-21-12-14-9-7-7-2-6 1-8 6-8 17-11 25-14 11-6 1-6v-265l-1-7v-13l3-8 5-6 16-10 29-17 10-5 7-3 18-11 16-10 24-13 44-26 17-10 25-14 17-10 20-12 49-28 23-13 24-14 22-13 1-1 1-52-6-2-9-5zm12 817-10 8-10 6-10 4-14 4-1 1-4 38-1 12v14l1 7 1 1 10-1 18-2 20-1 2-1v-11l-3-13-1-6v-18l4-28v-9l-1-5z" fill="#CCD4D8"/>
<path transform="translate(1347)" d="m0 0h28l13 8 8 7 5 8 3 10v17l-3 14-5 15-6 8-3 6 1 7 12 9 10 9 12 12 8 7 13 13 7 11 5 13 3 15 2 24 2 65 5 88v20l-3 3-1 3v8l3 14 4 4 10-7 15-8 7-1 17 9 5 4 1 3v111l-14 9-21 12-35 21h-1v-34l-18 13-12 6-3 1-1 3-5 3-6 2-7 4h-3v2l-5 1v-9l-5-1-28-5-14-2-5-5-4-7-5-7-3-6v-3l-10 6-4 1-3 3-13 6-5 3h-3v-33l-4-35-7-51-2-19-1-25-3-3 1-18 9-79 3-44 1-17-8 7-10 13-11 13-11 12-8 8-13 10-16 12-16 13-2 2-5-1-6-3-1 7-8 14-2 5v7l2 4 4 2 4 8 1 8v10l-2 9-3 3-3 4-5 2-2 3h-4l-1 3-10 6-12 4-5 3-6 1v2l-5 3h-4l-1-9-45-9-6-7-6-11-5-10v-2l21-12 17-10 17-9 10-3 14-2 2-10 5-10 13-12 6-4h2l2-5 7-8 11-11 9-11 12-13 9-11 9-9 9-11 10-14 12-19 11-19 21-42 7-10 9-8 17-8-2-9-1-10v-27l2-6-1-7v-10l4-9 6-8 11-7zm66 275v43l5 77 1 12-7 3-1 3v34l1 3 5-1 10-9 1-9-2-8v-10l4-7 6-7-1-8-5-28-6-40-4-30-3-17zm-68 204-1 15v22l6-1 4-3v-7l-4-23-2-3z" fill="#5F6E8B"/>
<path transform="translate(466,322)" d="m0 0h18l16 4 11 6 5 5 5 10 1 3v9l-4 12-6 10-7 6-3 1h-10l-2-1h-9l-1 8 3 8 7 25 2 8v-11l2-5 2-2 19-3 5-1 10 18v11l-8 6-8 4 13 8 8 7 2 4 5-2 20-11 35-21 7-3 18-11 6-3 6-2v2l-5 4-4 5-5 3h-4v2l-15 8-9 5-3 3-9 6-9 3h-2v2l-5 2-5 4-7 3-3 3-7 3 3 7 9 13 6 11 12 18 9 12 5 6 34 11 13 3 10 1 4 6 1 9-3 8 19-1 8-1 2-5h2l3-12 3-5 15-8 5-3 7-3 7-2 10-5 10-7v-2l5-3-2-3 9-4h5l-1-2 8-8 9-3h3v-2l2-1v-44l-1-4h-8l-5-5-3-9-6-3-4-5-9-5h-5l-2-4-5-2-11-6-14-8-17-10-7-3 5-5 5-3 5 1 17 10 21 12 18 10 18 11v2l4 1 5 3 1 6h2v-103l4 1 11 6 14 8 12 7 6 4v108l2-1 2-5 3-1 17 11 8 5-1 3-18 10-15 9h-2v2l-8 4-1 1-1 38h-4l-1-34-6 3h-4l1-14-9-6-1 26-9 6-17 9-17 10-6 2 7 3 10 1 7 2 19 3 6 3 10 18 4 6 1 4v10l-9 6-14 8-22 13-13 7-12 3h-22l-16-4-8-4-7-2-4-3-9-3-3-3-1-11-14 7-24 14-18 10-12 7-2-3 9-6 10-5 25-15 15-8 6-6 2-15 1-4h-6l-1 15-4 1v2l-6 1h-10v-2l-4-2v-8h2v-5l8-3-43-2-14-2-13-4-11-8-10-10-8-7-3 35 10 33 3 16 5 28 2 17v46l-3 30-3 23 9-5 9-3 11-7 9-5 6-4 3-1 4-4 7-3 7-5 7-4 7-3 8-5 6-4 7-3 6-4 7-5 4-2 8-1-1 4-3 1v2l-11 6-9 5h-2v2l-7 2v2l-8 4h-2v2l-7 3-7 4h-2l-1 3-7 3-9 5h-2l-1 3-7 3-24 14-7 4-8 7-2 4-2 18-4 57-2 23-1 6v16l2 31 3 20 4 12 4 7 2 4 9 2h27l4 2 1 4-2 4-3 1-5 5-8 9h-2v2l-11 6h-13l-8-4-4-4v-2l-5-2-7-5v-2h-12l-2 3-1 23h-3l-5-26-7-14v-15l4-6 5-3h5l1 2 6 2 20 20 2 3 3 1-3-14-3-23-2-27-1-17-1-15v-35l2-22 2-32v-31l-3-1h-29l-10-2-7-3v-2l-7-1-7-3-8-2-14-7-5-5-5-2-9-10-6-5-5-27-4-23-3-19-1-10v-11l3-31h2l1-9 10-32-4-2-6-11-6-32-9-51-3-14-1-8-5-2 1-4 4-1 2-10 6-9 5-4 8-5 5-14 3-19v-21l3-15 6-11 5-6 8-6 9-4z" fill="#FC4F5E"/>
<path transform="translate(856,177)" d="m0 0h19l14 3 12 6 7 8 2 5-1 152-1 103-16 9-9 6-15 9-9 5-2 1v-2l-5-2-14-9-7-4h-2l-2 6h-2v-108l-5-2-9-6-11-6-15-9-7-3v103h-2l-1-6-5-2-4-2v-2l-5-2-20-12-24-13-17-10-10-6-5 1-7 5 3 2 10 5 18 11 12 6 10 6 2 3h5l10 6 4 5 6 3 4 10 1 3 10 1 2 4v44l-3 1v2l-9 3-5 3-5 5v3l-8 1-5 2 2 3-5 5-8 6-12 7-6 1-5 3-8 3-14 8h-2l-2 5-4 12h-2l-1 5-1 1-8 1h-19l2-8-1-9-3-5-15-2-21-6-21-7-8-9-7-10-10-15-8-14-11-16-1-4 2-2 8-2 1-3 7-3 6-5h4v-2l12-5 8-5h2l1-3 12-7 10-5h2v-2l5-2 6-4 5-6h2v-2l-6 3-15 8-5 4-7 4-7 3-21 12-20 12-14 8-3-1-4-6-11-8-8-5 3-2 11-6 2-2 1-9 4-4 20-11 20-12 19-12 16-9 16-8 19-10 21-12 17-10 25-14 15-9 13-8 11-6 16-9 13-8 12-7 13-8 21-11 10-6 13-8h2l-1-4-9-2-16-2-6-2-11-2-5-5v-2h-2v-3h-2l-2-6-3-3-3-7v-4l17-9 17-10 17-9 13-4z" fill="#CDD5D9"/>
<path transform="translate(506,181)" d="m0 0 6 2 11 7 7 3 6 4 16 10 1 1v108h2l1-6 6 1 14 8 9 6-3 3-18 11-22 13-1 1-1 39h-6v-36l-6 4-2 1-1-14-4-3-1 3-5-10v-2l-18-9-13-3h-18l-11 4-6 4-6 5-6 10-3 8-2 11v21l-3 19-5 14-9 6-6 5-5 9-2 10h-4l-1 3 6 2 3 18 6 32 9 51 4 10 4 6 2 1-1 7-8 25-2 9h-2v11l-2 20v11l3 23 3 18 6 34 1 4 8 7 7 8 5 2 4 4 16 8 7 2 13 4v2l10 3 7 1h30l3 2v33l-2 31-2 23v40l2 21 1 21 3 25 3 17v5l-4-1-9-10-13-13-6-2v-2l-7 2-4 3-2 4v15l7 14 3 14 1 12h3v-23l3-4h10l2 1v2l4 2 8 5 4 4v2l6 2 2 1h13l9-5h2v-2l5-5 8-7 2-3 3-1 1-7-4-1h-29l-8-3-8-16-3-14-2-13-2-31v-16l1-6h1l1 22 7 3 15 5 16 8 13 9 10 10 6 10 4 13v12l-4 12-9 13-10 9-14 9-19 9-21 6-12 2-24 2h-24l-24-3-22-6-19-9-12-8-10-9-8-9-5-10-2-8v-14l4-11 7-11 9-9 13-9 6-3 8-10 1-1 8 1 10 3 2-24 2-38v-10l4-33 3-16 4-17 1-7v-11l-5-5-9-6-8-6-3-3v-3h-2l-2-5-3-7-8-44-3-15v-24l2-20 3-17 4-17 2-12 3-6-6-11-5-13-5-17-4-11-3-47v-6h-6v-2l-6-2-2-5 1-9-16 8-17 10-19 11-21 12-24 14-26 15-8 4 1-4 49-29 16-9 21-12 25-14 17-10 1-201 13-7 13-8 5 1 20 12 11 6 22 13 20 11 10 7h1zm-7 636-10 8-10 6-10 4-14 4-1 1-4 38-1 12v14l1 7 1 1 10-1 18-2 20-1 2-1v-11l-3-13-1-6v-18l4-28v-9l-1-5z" fill="#ADB3B7"/>
<path transform="translate(1050,496)" d="m0 0 5 1 10 6 29 17 3 2 1 107 2-4 4-1 11 6 5 4 1 2 8 3v2l-15 9-21 12h-2v2l-6 3-1 37-1 2h-4v-35h-4v2l-6 2-1-13-6-5-2-1v25l-14 8-25 14-8 5h-2v2l28 5 15 3 5 3 8 13 7 12v12l-9 6-14 8-24 14-13 6-10 2h-26v-2l-7-1-11-5-8-6-3-3v4h-8l-6-4-1-12-16 8-23 13-9 6-11 6-18 10-19 11-26 15-8 4 1-4 16-10 20-11 17-10 19-11 21-13 21-11 6-4 1-6-8 3h-12v-2l-5-2v-7l7 1 3 1v2h6l-4-4-6-3v-6l7 1-1-6h-2v-2l-5-2-2-5 3-7 4-8 1-5v-29l1-32v-32l-1-9v-13l-3-6v-2l-4 2-8 6-21 12-17 10-15 9-16 10-9 6-15 7-3-1v-9l18-11 46-27 24-14 21-12 4-1 7-6h4l1 86v79l5 2 1-172 3-3 15-8 8-6 5 1 17 9 22 13v2l5 1v2l5 1v2l5 1 2 1v2l5 1v2l5 1v2l5 1v2l5 1v2l5 1 5 4z" fill="#A0AFB2"/>
<path transform="translate(1402,227)" d="m0 0 4 2 6 30 1 14v39l1 6 5 77 1 12-6 3h-2v40l12-6 3-1 1 3 1 11 5-1 1-2 1-12 8 1h10l8-4 5-5 1-3 1-12 9-7 17-9 7-1 17 9 5 4 1 3v111l-14 9-21 12-35 21h-1v-34l-18 13-12 6-3 1-1 3-5 3-6 2-7 4h-3v2l-5 1v-9l-5-1-28-5-14-2-5-5-4-7-5-7-3-6v-3l-10 6-4 1-3 3-13 6-5 3h-3v-33l-4-35-7-51-1-9v-29l2-5 6-5 4-7 4-11 3-11 1-7 3-1 14 6 18 6 2 6 2 30 2 10 1 4 3 1 6 8 8 5 12 3h13l9-2 1-1 2-15 1-25v-53l1-38v-38l2-18zm-57 252-1 15v22l6-1 4-3v-7l-4-23-2-3z" fill="#3E4F65"/>
<path transform="translate(1026,204)" d="m0 0 5 1 27 14 11 7 5 5v103l-1 2-6-1-12-6h-2l-1 42 6-2 10 18 6 9 4 2 38 7 4 4-19 10-28 15-18 11-19 12-25 14-15 9-26 15-18 10-10 6-11 6-28 16-18 10-16 8-19 11-21 13-22 13-4 3h-2l-3-7-10-17-2-4-5-2-19-3-7-2-13-2-5-2 1-2 10-4 24-14 13-7 1-1 1-23 1-3 5 2 5 4-2 14 8-3h3v34h4v-38l7-5h3v-2l21-12 17-10 18-10 14-9 10-6 18-10 23-13 21-12 28-15 23-13 19-12 12-7 1-9v-44l-6-2-11-6-3-6-1-30v-33z" fill="#EBF6FB"/>
<path transform="translate(755,48)" d="m0 0 6 1 16 9 19 11 5 4 2 4v97l-1 5-7-1-15-8v41l6-1 4 11 4 4v5h2v3h2l3 5 6 2 9 2 8 2 12 1 9 2 1 5-14 8-7 5-12 6-22 12-14 9-14 8-25 15-11 6-24 14-56 32-18 10-16 8-17 9-19 12-20 12-21 12-5 2-1 2-10-18v-2l-5 2-19 3-2 2-1 4v13l-2-2-7-25-4-14-1-7 2-4h9l2 1h10l7-4 6-8 5-12 1-4v-15l4 2 1 1 1 13 5-4h2v36h6v-39l9-6 27-16 6-4 5-2 24-14 23-14 2-1 2 2 24-14 23-13 25-15 26-15 28-16 10-7v-52l-15-8-5-6v-98z" fill="#EBF6FB"/>
<path transform="translate(1405,116)" d="m0 0 5 2 12 12 8 7 13 13 7 11 5 13 3 15 2 24 2 65 5 88v20l-3 3-1 3v8l3 14 3 4v13l-3 6-7 5-5 2h-10l-8-2v12l-3 4-5-1-1-14-4 3-2-1 5-5 1-9-2-8v-10l4-7 6-7-1-8-5-28-6-40-4-30-3-17-3-1v37h-1v-40l-1-14-6-29-3-2-2 9-1 16v41l-1 40v53l-2 25-1 7-5 3-8 1h-11l-12-3-9-6-6-8-3-3-2-5-2-19-1-19-2-5-12-3-12-5-7-3v-1l7 1 15 6 7 2h4l2-52 3-42 2-9 6-10 4-8 8-11 3-7h2l2-5 6-10 5-9 4-5h2l1-5 2-6-4-8 1-5 5-3 5-10 3-13 6-16z" fill="#5E6D8B"/>
<path transform="translate(476,767)" d="m0 0 15 4 8 3 7 1h30l3 2v33l-2 31-2 23v40l2 21 1 21 3 25 3 17v5l-4-1-9-10-13-13-6-2v-2l-7 2-4 3-2 4v15l7 14 3 14 1 12h3v-23l3-4h10l2 1v2l4 2 8 5 4 4v2l6 2 2 1h13l9-5h2v-2l5-5 8-7 2-3 3-1 1-7-4-1h-29l-8-3-8-16-3-14-2-13-2-31v-16l1-6h1l1 22 7 3 15 5 16 8 13 9 10 10 6 10 4 13v12l-4 12-9 13-10 9-14 9-19 9-21 6-12 2-24 2h-24l-24-3-22-6-19-9-12-8-10-9-8-9-5-10-2-8v-14l4-11 7-11 9-9 13-9 5-1 2 13 3 7 1 11v17h3l2-14 2-9 2-2h7l9 4h12l5-5 2-5 2-10 1-16h-3v-2l-8 1-3-5v-1l19-3 9-1 22-1-2-15-3-15v-18l4-28v-9l-1-4-10 8-10 6-10 4-8 2-4-1 21-7 5-3 1-2h2v-2l5-1v-2l11-7v-2h-6v2l-7 2-13 6h-4l1-38z" fill="#CCD4D8"/>
<path transform="translate(487)" d="m0 0h43v18l-5 3-17-7 1 41 4-1 4 8v3l3 1 3 5 1 4 4 4 1 4 10 3 21 4 14 2-2 4-22 13-25 13-17 11-12 7-22 13-25 14-10 6-11 7-12 6-9 6-12 7-21 12-15 9-22 12-24 14-25 14-13 8-10 6h-7l-4-4-3-5-4-6-3-7-3-4-14-2-11-2v-2l-16-2v-3l14-8 15-10 29-16 24-14 22-13 17-10 25-14 17-10 20-12 49-28 23-13 24-14 22-13 1-1 1-52-6-2-9-5z" fill="#EBF6FB"/>
<path transform="translate(418,613)" d="m0 0 5 1 10 8 10 6 17 8 14 4 14 2h33l14-2 12-4h3l4 20 3 23v46l-3 30-3 23 9-5 9-3 11-7 9-5 6-4 3-1 4-4 7-3 7-5 7-4 7-3 8-5 6-4 7-3 6-4 7-5 4-2 8-1-1 4-3 1v2l-11 6-9 5h-2v2l-7 2v2l-8 4h-2v2l-7 3-7 4h-2l-1 3-7 3-9 5h-2l-1 3-7 3-24 14-7 4-8 7-2 4-2 18-4 57-2 23-1 6v16l2 31 3 20 4 12 4 7 2 4 9 2h27l4 2 1 4-2 4-3 1-5 5-8 9h-2v2l-11 6h-13l-8-4-4-4v-2l-5-2-7-5v-2h-12l-2 3-1 23h-3l-5-26-7-14v-15l4-6 5-3h5l1 2 6 2 20 20 2 3 3 1-3-14-3-23-2-27-1-17-1-15v-35l2-22 2-32v-31l-3-1h-29l-10-2-7-3v-2l-7-1-7-3-8-2-14-7-5-5-5-2-9-10-6-5-5-27-4-23-3-19-1-10v-11z" fill="#0C405A"/>
<path transform="translate(1328,527)" d="m0 0h2l5 10 6 9 4 7 12 3v2l17 3 10 1 2 1-2 4-28 18-14 8-22 12-27 15-21 12-17 10-15 10-17 11-26 15-23 13-15 8-7 3-23 13-24 15-19 11-8 4-2 4-1 10h-1l-1-13-14-24-5-3-21-4-20-4-2-1v-2l28-16 16-9 4-2 1-25 5 2 4 4v13l6-2v-2h4v35h4l1-39 4-3h3v-2l20-11 16-10 5-2 40-24 8-5 9-3 28-15 23-13 28-17 22-12 2-4 8-4 13-6h2l1-3 8-3z" fill="#EBF6FB"/>
<path transform="translate(778,339)" d="m0 0 4 1 11 6 14 8 12 7 6 4v108l2-1 2-5 3-1 17 11 8 5-1 3-18 10-15 9h-2v2l-8 4-1 1-1 38h-4l-1-34-6 3h-4l1-14-9-6-1 26-9 6-17 9-17 10-6 2 7 3 10 1 7 2 19 3 6 3 10 18 4 6 1 4v10l-9 6-14 8-22 13-13 7-12 3h-22l-16-4-8-4-7-2-4-3-9-3-3-3-1-11-14 7-24 14-18 10-12 7-2-3 9-6 10-5 25-15 15-8 6-6 2-15 1-4h-6l-1 15-4 1v2l-6 1h-10v-2l-4-2v-8h2v-5l8-3 6-2h19l8-1 2-5h2l3-12 3-5 15-8 5-3 7-3 7-2 10-5 10-7v-2l5-3-2-3 9-4h5l-1-2 8-8 9-3h3v-2l2-1v-44l-1-4h-8l-5-5-3-9-6-3-4-5-9-5h-5l-2-4-5-2-11-6-14-8-17-10-7-3 5-5 5-3 5 1 17 10 21 12 18 10 18 11v2l4 1 5 3 1 6h2z" fill="#A1AFB2"/>
<path transform="translate(1347)" d="m0 0h28l13 8 8 7 5 8 3 10v17l-3 14-5 15-6 8-3 6 1 7 6 4-2 1-2 6-14 30-9 19-9 25-9 29-7 33-2 16-3 51-1 36-3 1-18-6-12-6-2-2v-14l1-9 1-59 1-29 4-38 5-26 9-30 5-12-2-12-1-11h-3l-3-9-1-10v-27l2-6-1-7v-10l4-9 6-8 11-7z" fill="#FDCFAF"/>
<path transform="translate(1194,722)" d="m0 0h3l1 159v32l-6 5-3 1h-8l-8-3-2-4-1-8-1-3-8-2-6-4v-2l-7-2v-2l-9-3v-2l-5-1v-2l-6-2-8-4v-2l-5-2-16-9-3-1v-2l-5-1v-2h-3v-2h-3l-1-2-5-3-6-8 1-49 25-15 16-9 24-14 16-9 24-14 11-6z" fill="#ADB3B7"/>
<path transform="translate(675,394)" d="m0 0 9 2 13 8 11 6 14 8 9 5 2 3h5l10 6 4 5 6 3 4 10 1 3 10 1 2 4v44l-3 1v2l-9 3-5 3-5 5v3l-8 1-5 2 2 3-5 5-8 6-12 7-6 1-5 3-3-1h2l-5-5-14-8-5 1-18 11h-4v-131l1-13 9-4z" fill="#ADB3B7"/>
<path transform="translate(466,322)" d="m0 0h18l16 4 11 6 5 5 5 10 1 3v9l-4 12-6 10-7 6-3 1h-10l-2-1h-9l-1 8 3 8 7 25 2 8v-11l2-5 2-2 19-3 5-1 10 18v11l-8 6-6 3-7-1-15-9 1 8v22l-3 7h-1l-1-7-5 10-5 3-8 3-17-2-13-5-9-7-4-4-6-5-6-16-2-10-1-1 1-7 7-11 5-12 3-14 1-8v-21l3-15 6-11 5-6 8-6 9-4z" fill="#773012"/>
<path transform="translate(1361,625)" d="m0 0h3l1 6v198l-17 10-20 11-20 12-16 9-18 11-11 6-25 14-24 14-26 15-27 16-21 12-13 8-27 15-22 13h-3l2-4 13-8 24-13 15-9 24-14 16-10 20-11 10-6 19-11 7-4 26-15 23-13 21-12 17-10 23-13 20-12v-3l-9-6-14-8-2-2-1-75-26-7-21-7-13-7-13-10-8-9 1-4 22-14 8-6 16-8 9-5 3-1v-2l14-7 5-2v-2l12-6 22-13z" fill="#9AA3A9"/>
<path transform="translate(952,556)" d="m0 0 6 2h4l3 4 4 2v3l2-1 2 4 7 4h8l4 3 7 2 6 3v2l6 2 8 4 8 5v2l5 2 3 5 3 4v2h2l5 8 2 13v33l-12 6-7 3-11 6-21 12-5 1v2l-12 6-11 6h-2v2l-11 6-10 7-5 2v-5l4-3v-3h-3l-1-52v-99l2-2z" fill="#AEB4B8"/>
<path transform="translate(907,583)" d="m0 0 3 1-1 2 2 1 2 6v12l1 14v37l-1 32v19l-2 7-3 6-3 8 2 4 4 2v2h2l1 6-7-1 1 6 8 4 1 3h-6v-2l-10-2v7h-1l-1-9-6-4v-2l-7-2v-2l-7-2v-2l-6-2-6-3v-2l-10-4v-2l-5-1v-2l-7-2v-2l-7-2v-2l-7-2v-2l-7-2v-2l-5-1v-2h-3v-2h-3l-1-2-5-3-3-6v-2h-2l-1-9v-30l6-1 15-8 14-9 20-12 22-13 14-8 11-7z" fill="#ADB3B7"/>
<path transform="translate(1363,831)" d="m0 0 4 1 22 13 3 3-14 9-21 12-16 9-18 10-17 10-11 7-11 6-15 8-17 10-15 9-18 10-15 9-9 6-11 6-29 16-24 14-13 8-17 10-23 13-4 1-1-6v-25l4-4 18-10 15-9 4-4 22-12 11-7 26-15 27-16 25-14 22-13 24-14 11-6 57-33 18-10z" fill="#EBF6FB"/>
<path transform="translate(650,408)" d="m0 0h3v142l-6 4-2 2-2 4-15-2-21-6-21-7-8-9-7-10-10-15-8-14-11-16-1-4 2-2 8-2 1-3 7-3 6-5h4v-2l12-5 8-5h2l1-3 12-7 10-5h2v-2l5-2 6-4 5-6h2v-2l-4 1 3-3 9-4z" fill="#ADB3B7"/>
<path transform="translate(1523,418)" d="m0 0h2v111l-14 9-21 12-30 18h-4l-1-42v-14l-2-5-8-9-15-6-18-4-3-2v-3l17-9 17-10 12-7 11-6 14-8 24-14 13-8z" fill="#2C4147"/>
<path transform="translate(476,767)" d="m0 0 15 4 8 3 7 1h30l3 2v33l-2 31-2 23v40l2 21 1 21 3 25 3 17v5l-4-1-9-10-13-13-6-2-3-5-1-1v-22l-4-16-4-13v-14l-3-13-1-6v-18l4-28v-9l-1-4-10 8-10 6-10 4-8 2-4-1 21-7 5-3 1-2h2v-2l5-1v-2l11-7v-2h-6v2l-7 2-13 6h-4l1-38z" fill="#FDCFAF"/>
<path transform="translate(735,553)" d="m0 0h7l13 2 7 2 19 3 6 3 10 18 4 6 1 4v10l-9 6-14 8-22 13-13 7-12 3h-22l-16-4-5-3-1-2-5-3-7-9-3-7-3-2v-4l4 2 1-10 5-8 8-7 15-9 14-8 17-10z" fill="#3E4F65"/>
<path transform="translate(1009,710)" d="m0 0 8 1 26 5 11 2 5 3 8 13 7 12v12l-9 6-14 8-24 14-13 6-10 2h-26v-2l-7-1-11-5-8-6-4-8-1-3-5-4v-3l5 1 1-11 5-8 9-7 17-10 23-13z" fill="#3E4F65"/>
<path transform="translate(195,239)" d="m0 0 10 1 9 1 2 1v2l11 1 14 2 6 8 3 7 4 5 4 8v13l-10 5-5 3-1 2h-3v2l-10 4-2 2-7 3-7 4-14 7-8 3h-21l-17-4-4-2-7-2-7-4-2-6-1-7v-13l3-8 5-6 16-10 29-17z" fill="#3F5066"/>
<path transform="translate(856,177)" d="m0 0h19l14 3 12 6 7 8 2 5v20l-2 5-7 6-7 5-11 6-28 16-5 1-1-8-4-2-9-2-16-2-6-2-11-2-5-5v-2h-2v-3h-2l-2-6-3-3-3-7v-4l17-9 17-10 17-9 13-4z" fill="#3F5066"/>
<path transform="translate(592,19)" d="m0 0 18 2 12 4 9 6 6 7 1 3v21l-5 8h-2v2l-4 1v2l-4 1v2l-6 3-10 6-7 3-4 1v2h-3v2l-13 6h-2l-1-10-15-2-19-4-10-2-5-2-2-5-3-1-3-7-3-3-4-8 1-4 25-13 13-8 17-9 12-3z" fill="#3F5066"/>
<path transform="translate(539,549)" d="m0 0 7 6 8 7 10 9 10 5 12 3 25 2 30 1-2 2-7 2-1 5h-2l1 8 3 2v2l16-1v-2l3-1 2-15h6l-2 19-4 5-10 6-12 6-28 17-33 18-12 8-5-1-4-23-3-16-6-21-5-18z" fill="#CCD4D8"/>
<path transform="translate(1387,100)" d="m0 0 7 4-2 1-2 6-14 30-9 19-9 25-9 29-7 33-2 16-3 51-1 36-3 1-18-6-12-6-2-2v-14l1-9 1-59 1-29 4-38 5-26 9-30 5-12 2-2 5 1 3 9 2 12-9 9-5 4v16l-9 41-5 30-3 25-3 47 2 10 6 12 4-1 8-10 1-6v-83l3-32 3-19 4-15 7-7v-8l-3-13 11-5 11-7 13-12 11-14z" fill="#E5E8EE"/>
<path transform="translate(1130,333)" d="m0 0h5l2 3-1 4-9 4-8 5 2 4 14 8 5 1 6-2v-2l10-4 7-4 4-2h4v-2h6l4 6 2 11v10l-2 9-3 3-3 4-5 2-2 3h-4l-1 3-10 6-12 4-5 3-6 1v2l-5 3h-4l-1-9-45-9-6-7-6-11-5-10v-2l21-12 17-10 17-9 10-3z" fill="#405066"/>
<path transform="translate(1026,204)" d="m0 0 5 1 27 14 11 7 5 5v103l-1 2-6-1-12-6h-2v81l-4 3-4-3v-35l1-9v-44l-6-2-11-6-3-6-1-30v-33z" fill="#CDD5D9"/>
<path transform="translate(755,48)" d="m0 0 6 1 16 9 19 11 5 4 2 4v97l-1 5-7-1-15-8v81l-4 2-1-1-1-86-15-8-5-6v-98z" fill="#CDD5D9"/>
<path transform="translate(398,467)" d="m0 0h7l5 25 11 63 4 10 4 6 2 1-1 7-8 25-2 9h-2v11l-2 20v11l3 23 3 18 6 34 1 4 8 7 7 8 5 2 4 4 16 8 7 2 13 4v1l-9-1-3-1-1 2-2 14v11l-1 19-1 7 10-4 7-3 1-1h6v-2l6-1v4l-9 6h-2v2l-5 1v2h-2l-1 3-5 3-15 5-5 1-3 3-4 38-1 12v14l2 9 2 4h8v2h3v16l-3 14-5 6-2 1h-12l-9-4h-7l-2 6-4 18h-3l-2-28-4-10v-11l9-11 1-1 8 1 10 3 2-24 2-38v-10l4-33 3-16 4-17 1-7v-11l-5-5-9-6-8-6-3-3v-3h-2l-2-5-3-7-8-44-3-15v-24l2-20 3-17 4-17 2-12 3-6-6-11-5-13-5-17-4-11-3-47v-6h-6z" fill="#CFACA3"/>
<path transform="translate(674,710)" d="m0 0h2l-1 4-3 1v2l-11 6-9 5h-2v2l-7 2v2l-8 4h-2v2l-7 3-7 4h-2l-1 3-7 3-9 5h-2l-1 3-7 3-24 14-7 4-8 7-2 4-2 18-4 57-2 23-1 6v16l2 31 3 20 4 12 4 7 2 4 9 2h27l4 2 1 4-2 4-3 1-5 5-8 9h-2v2l-11 6h-13l-8-4-4-4v-2l-5-2-7-5v-2h-12l-2 3-1 23h-3l-5-26-7-14v-15l4-6 5-3h5l1 2 6 2 20 20 2 3 3 1-3-14-3-23-2-27-1-17-1-15v-35l2-22 2-32v-31l-3-1h-29l-10-2-7-3 3-1 11 3 9 1 23-1v-2l18-9-2 16 9-5 9-3 11-7 9-5 6-4 3-1 4-4 7-3 7-5 7-4 7-3 8-5 6-4 7-3 6-4 7-5 4-2z" fill="#CEACA3"/>
<path transform="translate(778,339)" d="m0 0 4 1 11 6 14 8 12 7 6 4v76l-1 31-14-7-24-14-8-6z" fill="#273242"/>
<path transform="translate(506,181)" d="m0 0 6 2 11 7 7 3 6 4 14 9 2 3v105h-3v-2l-5-1-15-8-13-8-8-5-2-3z" fill="#273241"/>
<path transform="translate(1051,497)" d="m0 0 6 1 8 5 29 17 2 2v108l-11-6-10-6-14-8-10-7z" fill="#273241"/>
<path transform="translate(388,450)" d="m0 0h3v9l1 5 6 2v2h6v9l-22 12-16 10-39 22-19 11-20 12-24 13-6 2-1-1v-29l4-4 15-8 13-8 24-14 19-11 29-17 5-3 4-4z" fill="#EBF5FA"/>
<path transform="translate(933,764)" d="m0 0 2 1 1 12 6 4 6 1v7l-6 5-24 14-18 11-12 7-11 6-18 10-20 12-25 14-8 5-5-1v-27l3-5 10-6 11-6 25-15 21-12 24-13 16-10 10-6 3-3z" fill="#EBF5FB"/>
<path transform="translate(429,740)" d="m0 0h2l3 5 8 6 6 4 8 6 1 2v11l-4 20-3 13-4 30-1 10v13l-3 51-1 8-3 1-11-4-4-2 1-12v-13l-2-13-7-33-2-13-2-5 3-3v-10l7-21 5-13 2-11z" fill="#FDCFAF"/>
<path transform="translate(420,613)" d="m0 0 4 2 11 8 16 9 12 5 17 4 8 1h33l14-2 12-4h3l4 20 3 23v46l-3 30-1 7-9 6-12 5-26-1-3-2 7-1h17l1-4v-53l-2-19-5-27-6-15-1-1-12-2-21-1-22-5-16-8-11-7-6-4v-2l-4-2-2-3z" fill="#172737"/>
<path transform="translate(405,549)" d="m0 0 2 1v5l-12 7-27 18-23 14-25 14-24 14-25 14-27 16-28 17-17 8-12 3-7 1h-10l-15-3-11-5-3-3v-2h-2l-4-6v-7l5 1 10 6 5 1-1-8 1-26 2-6 5-1 2 5 1 10 2 3 1-2 1-15 3-7 5-4h4l1 8 2 15 2 27v4l5 1v-22l2-18 3-7 3 3 4 26 1 13 10-1 7-5 14-7 10-7 8-4 9-6 10-5 13-8 3-3 9-5 7-3 6-3h2v-2h2v-2l8-3 4-4 9-4 3-1v-2l5-2 6-4 5-2 3-1v-2l10-3 1-3 8-4h2v-2l10-6 6-1 1-3z" fill="#ADB3B7"/>
<path transform="translate(1305,658)" d="m0 0 1 2 15-1 9-1 1 9v63l-1 6-16-4-27-8-16-8-10-7-10-9-3-4 1-4 22-14 8-6 16-8 9-5z" fill="#ADB3B7"/>
<path transform="translate(1347)" d="m0 0h28l13 8 8 7 5 8 3 10v17l-3 14-1 3-11 1-8 8h-5l-4-7-2-17-3-5-7-1-9 1h-21l-8-3-4-6v-10l4-9 6-8 11-7z" fill="#773013"/>
<path transform="translate(1194,722)" d="m0 0h3l1 159v32l-6 5-3 1h-8l-8-3-2-4-1-8-1-3-8-2-6-4v-2l-7-2v-2l-9-3v-2l-5-1v-2l-6-2-8-4v-2l-5-2-16-9-3-1v-2l-5-1v-2h-3v-2h-3l-1-2-5-3-5-6v-10l3 1 3 6 6 7 21 14 24 14 18 10 22 13 6 2 1-3h5l-1-7v-10l1-10 2-52 1-29v-29l-2-14-2-5-3-2h-3v2l-13 9-16 8-12 7-7 5-4 2-5 5-10 3-11 7-10 5-3 2-7 1-4 2v-5l25-15 16-9 24-14 16-9 24-14 11-6z" fill="#9FAEB1"/>
<path transform="translate(921,565)" d="m0 0h4v86l-1 106h-4v2l-5 1h-9l-5-3v-7l7 1 3 1v2h6l-4-4-6-3v-6l7 1-1-6h-2v-2l-5-2-2-5 3-7 4-8 1-5v-29l1-32v-32l-1-9v-13l-3-6v-2l-4 2-8 6-21 12-17 10-15 9-16 10-9 6-15 7-3-1v-9l18-11 46-27 24-14 21-12 4-1z" fill="#9EAEB1"/>
<path transform="translate(1050,496)" d="m0 0 3 1h-2l1 106 15 10 8 4 20 12 1-107h1l1 107 2-4 4-1 11 6 5 4 1 2 8 3v2l-15 9-21 12h-2v2l-6 3-1 37-1 2h-4v-35h-4v2l-6 2-1-13-6-5-2-1v25l-8 5h-4l1-10 1-6v-3l3-1v-52h-2l-3-6-2-6-3-6-12-7-23-13-42-24-7-5v-2h6l20 11 17 10v2l5 1v2l5 1v2l5 1 2 1v2l5 1v2l5 1v2l5 1v2l5 1v2l5 1 5 4z" fill="#979CA5"/>
<path transform="translate(659,608)" d="m0 0h3l1 6 2 6 5 3 6 2v8l-1 2-11 6-26 15-21 12-26 15-17 10-13 7h-2l-1-2-1-30 20-11 20-12 28-16 16-9 5-3 4-4z" fill="#EBF5FA"/>
<path transform="translate(499,511)" d="m0 0 5 2 5 5v2l3 1v2h2l4 5 8 7 2 4 4 2 3 2v2l4 2v16l-2 22 10 33 3 16-5 4-15 4-9 1h-33v-1l21-1 1-10 1-8v-20l3 1-2-9-1-16-4-13-1-8-2-7v-9l-3-16z" fill="#EE4358"/>
<path transform="translate(1320,97)" d="m0 0h4l2 11 1 8 1 4-7 18-7 24-5 26-4 38-1 29-1 59-1 9v14l7 4 14 6 12 3 1-36 3-51 3-21 6-28 9-29 7-20 11-24 17-36 4 1 10 8 2 3h-3l-5 13-4 16-6 12-5 2 1 7 3 6-4 10h-2l-2 4-5 7-6 11-4 7h-2l-1 4-5 9-5 6-10 20-2 17-3 51-1 32-5 1-18-6-14-7-1-2 1-62 1-50 1-9-1-9 1-2 2-21 2-12 2-10 1-2h2l1-10 3-8 5-12 4-8v-4l-4-3-1-3v-12l-3-1z" fill="#877E90"/>
<path transform="translate(1448,890)" d="m0 0v3l-5 5-2 3-8 4-5 2v2l-14 7-15 9h-2v2l-7 2v2l-16 8-14 9-14 8-6 3h-2v2l-12 6-4 5-5 1v2l-16 9-7 4-9 2v2l-7 3-9 5h-2v2l-12 6h-2v2l-8 4h-2v2l-7 3-10 4-5 3-4 4h-2v2l-12 6-3 3-16 8-9 5h-2l-1 3-19 9-14 2h-59l-39 4-10 2-2 3h-103l-8-4v-3l6-3 21-1 199-1 28-16 24-13 15-9h3v-2l9-5 6-3 15-9 11-6 7-4 19-11 7-5h2v-2l9-4 12-7 8-4h2v-3l13-8h4v-2l6-2 4-4 11-3v-2l9-5 8-4 8-5 9-6 5-2 24-14 11-7 7-5z" fill="#49586F"/>
<path transform="translate(824,441)" d="m0 0h1v32l2-1 2-5 3-1 17 11 8 5-1 3-18 10-15 9h-2v2l-8 4-1 1-1 38h-4l-1-34-6 3h-4l1-14-9-6-1 26-5 4h-7l-1-5 1-18 3-23 3-6 2 2v-23l-3-1-1-8 14 8 13 8 11 6 6 3z" fill="#9AA5AA"/>
<path transform="translate(551,207)" d="m0 0 2 1v108h2l1-6 6 1 14 8 9 6-3 3-18 11-22 13-1 1-1 39h-6v-36l-6 4-2 1-1-14-4-3-1 3-5-10v-2l-3-1-1-35-4-3 1-6 8 4 9 6 24 12v2h3z" fill="#87999E"/>
<path transform="translate(1391,104)" d="m0 0 3 1h-2l-2 6-14 30-9 19-9 25-9 29-7 33-2 16-3 51-1 36-3 1-18-6-12-6-2-2v-14l1-9 1-59 1-29 4-38 5-26 9-30 5-12 2-2 5 1 3 9 2 12-9 9-5 4v16l-9 41-5 30-3 25-3 47 2 10 6 12 4-1 8-10 1-6v-83l3-32 3-19 4-15 2-3 2 1-4 10-3 16-3 32-2 42 1 31 2 12-1 11-4 8-5 4-2 4-2 1h-6l-4-7-3-1v6l1 3 5 2 19 7h4l1-30 2-39 4-34 6-33 4-13 4-14 12-29 10-19 13-28z" fill="#CDD4D8"/>
<path transform="translate(780,365)" d="m0 0 5 1 13 8 14 8 11 7v42l-1 13-4-1-18-10-9-6-6-2v-2l-4-2-1-12z" fill="#405066"/>
<path transform="translate(507,965)" d="m0 0h5l5 5 10 9 10 10 7 8 7 5h6l1-1 1-9h33l1 1v6l-8 7-7 8h-2v2l-11 6h-13l-8-4-4-4v-2l-5-2-7-5v-2h-12l-2 3-1 23h-3l-5-26-7-14v-15l4-6z" fill="#2B3544"/>
<path transform="translate(1165,294)" d="m0 0 7 3 5 4 8 6-2 1-1 7-8 14-2 5v7l2 4 2 1h-5v2l-11 4-6 4-8 2v2l-6 3-5-1-14-8-3-3 1-3 9-6 8-3-1-7h2l2-10 5-10 13-12 6-4h2z" fill="#FDCFB1"/>
<path transform="translate(1336,146)" d="m0 0 4 2 2 4-1 7-5 2-3 10-3 14-3 21-2 24v90l-3 6-6 5-5-3-4-9v-27l1-19 5-38 5-28 5-23 4-14v-9l-1-6z" fill="#EF4458"/>
<path transform="translate(391,251)" d="m0 0 2 1v164l5-3 5-7 10-5 5 1 2 3h2l2-3 5 1-3 11-3 6-11 7-6 8-2 4-2 10h-4l-1 3 6 2 1 13h-6l-6-3-2-5 1-9-16 8-17 10-19 11-21 12-24 14-26 15-8 4 1-4 49-29 16-9 21-12 25-14 17-10z" fill="#9AA3A9"/>
<path transform="translate(1460,390)" d="m0 0h3v10l3 14 3 4v13l-3 6-7 5-5 2h-10l-8-2v12l-3 4-5-1-1-14-4 3-2-1 5-5 1-9-2-8v-10l4-7 6-7v-7h10z" fill="#FCCEAF"/>
<path transform="translate(1283,190)" d="m0 0 3 1 1 3-2 9 1 17-2 6-10 12-8 10-12 14-13 13-13 10-16 12-16 13-2 2-5-1-5-5 2-1 2-4 5-3 5-5 4-2 1-3 8-6h2v-2l14-10 11-10 8-10v-7l4-5 7-4 8-10 7-16h2l1-5 2-3h2l2-5z" fill="#405167"/>
<path transform="translate(948,864)" d="m0 0h2v7l-22 12-15 9-43 24-27 16-26 15-25 15-17 11-19 11-8 4-16 4h-21l-11-3-10-4-5-5-4-5v-2l5 2 12 6 7 2 15 1h13l7-2 10-3 14-8 3-1v-2l11-6 4-3 9-3 1-3 21-12 7-2v-2h3v-2l14-7h2v-2l7-4 7-2v-2l6-1 1-3 7-4 4-1 3-3 12-7 4-1 3-3 5-3 6-2 3-3 7-4 7-3 6-2v-2l12-6 3-3h4v-2z" fill="#526276"/>
<path transform="translate(736,921)" d="m0 0 4 2 3 34 1 21 6-1 5-3 7-2-2 3-9 4-8 3-9 2-1 1h-13l-15-1-12-4-12-7 4 6 5 4v2l-5-2-5-6-1-8 5 1 7 5 4 2h6l-1-4v-24l1-11 3-1 3 5 1 8 2-4 2-14 5-4h6l1 8 1 45 4 1 2-1v-20l3-37z" fill="#ADB3B7"/>
<path transform="translate(687,386)" d="m0 0 5 1 17 10 21 12 18 10 18 11v2l4 1 5 3 1 6h2l2 6v6l4 1v23l-2 1-1-2-2 5-2 18h-2l-1-42-1-4h-8l-5-5-3-9-6-3-4-5-9-5h-5l-2-4-5-2-11-6-14-8-17-10-7-3 5-5z" fill="#9FAEB1"/>
<path transform="translate(422,915)" d="m0 0 8 1 10 7 5 6 2 1 3 8 6 2-2-5-2-2v-11l5-2h7v20l-2 9-5 6-2 1h-12l-9-4h-7l-2 6-4 18h-3l-2-28-4-10v-11l9-11z" fill="#2A3443"/>
<path transform="translate(521,359)" d="m0 0h1v5l3 8 4 10v5l-1 1v8h-2l-3 9-4 8-4 3-19 3-2 2-1 4v13l-2-2-7-25-4-14-1-7 2-4h9l2 1h10l7-4 6-8 5-12z" fill="#FCCDAE"/>
<path transform="translate(405,549)" d="m0 0 2 1v5l-12 7-27 18-7 2-11 7h-3v2l-7 4-9 3-11 6-15 8-5 4-11 6-15 8-10 6-17 10-12 7-4 4-21 12-12 5-7 2-13 2-12-1-1-1-11-2-11-7-5-6 3-1 14 7 9 2h27l12-3 7-2v-2l7-3 4-3 14-7 10-7 8-4 9-6 10-5 13-8 3-3 9-5 7-3 6-3h2v-2h2v-2l8-3 4-4 9-4 3-1v-2l5-2 6-4 5-2 3-1v-2l10-3 1-3 8-4h2v-2l10-6 6-1 1-3z" fill="#49596E"/>
<path transform="translate(501,62)" d="m0 0 1 2-3 10-7 4h-3v2l-21 9-16 8-19 9-22 12-16 9-13 8-14 9-21 11-27 16-14 8-22 13-18 12-19 11-18 11-10 7 1 8h-15l-6-2 3-3 18-11 16-10 24-13 44-26 17-10 25-14 17-10 20-12 49-28 23-13 24-14z" fill="#FCFCFC"/>
<path transform="translate(1387,100)" d="m0 0 5 3-9 20-15 31-5 10-4 11-4 4-4 6-2 4h-3l-1-13-2-1-1-9 2-4v-10l-1-10 3-3 6-3 4-4 13-10 8-8z" fill="#EBF6FB"/>
<path transform="translate(406,467)" d="m0 0 3 1 3 8 17 34 5 19 3 12v16l-2 8-2 6h-5l-6-10-3-12-13-73z" fill="#EE4358"/>
<path transform="translate(1072,747)" d="m0 0h1v12l-15 9-24 14-15 8-9 3-6 1h-26v-2l-7-1-11-5-2-3-2-7-4-4v-3l5 2v2l5 2 11 4 16 3h9l14-3 14-5 10-5 15-8 14-8 6-4z" fill="#2E3C4C"/>
<path transform="translate(1498,402)" d="m0 0 6 1 2 2h-4l3 5v2l5 2 2 2-1 5-6 3h-10l-10 4-5 6-10 2-1 3 1 7-5 3-5-4-6 2-7 2-1 5-16 8h-7l-12-2v-8l1-2 12-6 3-1 1 3 1 11 5-1 1-2 1-12 8 1h10l8-4 5-5 1-3 1-12 9-7 17-9z" fill="#56657A"/>
<path transform="translate(924,1067)" d="m0 0h152v1l-41 5-5 2-1 2h-103l-8-4v-3z" fill="#162738"/>
<path transform="translate(1361,625)" d="m0 0h3l1 6v198l-3 2-4-1h2l-2-6 1-193z" fill="#92A1A4"/>
<path transform="translate(476,767)" d="m0 0 15 4 3 9 5 20 2 6 3 2v6l-4 4-9 6-8 6-11 5-11 3-4-1 21-7 5-3 1-2h2v-2l5-1v-2l11-7v-2h-6v2l-7 2-13 6h-4l1-38z" fill="#CCD4D8"/>
<path transform="translate(1330,770)" d="m0 0h1l1 31 1 8 9 6 13 8 5 5-1 5-26 14-25 15-16 9-18 11-11 6-25 14-24 14-26 15-27 16-21 12-13 8-27 15-22 13h-3l2-4 13-8 24-13 15-9 24-14 16-10 20-11 10-6 19-11 7-4 26-15 23-13 21-12 17-10 23-13 20-12v-3l-9-6-14-8-2-2z" fill="#ADB3B7"/>
<path transform="translate(1050,496)" d="m0 0 3 1h-2l1 106 8 5 1 6v37l-2 4v27l-7 4h-4l1-10 1-6v-3l3-1v-52h-2l-3-6-2-6-3-6-12-7-23-13-42-24-7-5v-2h6l20 11 17 10v2l5 1v2l5 1v2l5 1 2 1v2l5 1v2l5 1v2l5 1v2l5 1v2l5 1 5 4z" fill="#869499"/>
<path transform="translate(1192,723)" d="m0 0h4v190l-4 3h-15l-4-5 1-4 5 2 8 1-1-3-7-4v-4l10-4 1-3 1-147z" fill="#5CA987"/>
<path transform="translate(1449,887)" d="m0 0h2l-1 7-2 5-7 6-25 14-29 17-21 13-23 13-28 17-22 12-19 11-24 13-16 9-27 15-29 15-5 2v-2l15-8 12-6h2l1-3 9-5h3v-2l4-2 4-4 7-4 8-3 5-1v-2l7-4h3v-2l11-6h3v-2l14-8h4v-2l3-2 8-2 10-6 9-5h2v-2l5-1 2-4 9-6 5-1v-2l8-4 10-6 9-5 13-8 5-3 7-2v-2l4-2h3v-2l16-9 12-7h3v-2l10-6h3l2-4 5-5-3-2z" fill="#98A0A6"/>
<path transform="translate(517,414)" d="m0 0h3l10 18v11l-8 6-6 3-7-1-15-9-2-10v-7l2-5 2-2 19-3z" fill="#3E4F64"/>
<path transform="translate(487)" d="m0 0h43v18l-5 3-17-7 1 39v42l-2 2-5-1-1-1v-31l1-3 1-52-6-2-9-5z" fill="#B5BEC2"/>
<path transform="translate(922,566)" d="m0 0h2v191h-4v2l-5 1h-9l-5-3v-7l7 1 3 1v2h6l-4-4-6-3v-6h7l2-3h3v-152l1-19z" fill="#5CA987"/>
<path transform="translate(1073,620)" d="m0 0 10 4 4 2v2h3l1 3v30l-4 5-2 1-1 37-1 2h-4v-35l-6 1-1-1-1-10v-37z" fill="#8EA4A4"/>
<path transform="translate(1320,97)" d="m0 0h4l2 11 1 8 1 4-7 18-7 24-5 26-4 38-1 29-1 59-1 9v14l7 4 14 6 12 3 1-36 3-51 2-16h1v10l-3 42-2 52-5 1-18-6-14-7-1-2 1-62 1-50 1-9-1-9 1-2 2-21 2-12 2-10 1-2h2l1-10 3-8 5-12 4-8v-4l-4-3-1-3v-12l-3-1z" fill="#91A0A3"/>
<path transform="translate(794,393)" d="m0 0h11l4 2 1 2v7l-2 6-1 7h2l7 8 5 6 1 5v8l-4-1-18-10-9-6-6-2v-2l-4-2v-11l1-1h13l-2-8z" fill="#C5CED2"/>
<path transform="translate(363,580)" d="m0 0 3 1-19 12-27 15-24 14-25 14-27 16-28 17-17 8-12 3-7 1h-10l-15-3-11-5-3-3v-2h-2l-4-6v-7l5 1 11 7 3 2 9 2 14 1h13l14-4 4 1-8 3-9 2h-27l-12-3-11-6h-2l5 6 10 6 11 2 7 2 9-1 14-2 13-5 20-11 4-3h2l1-3 21-12 10-6 31-18 7-4 9-5 10-6 8-4 9-3 4-3h3v-2l8-4z" fill="#A5ADB3"/>
<path transform="translate(660,546)" d="m0 0 24 12h-2l-2 5-4 12h-2l-1 5-1 1-8 1h-19l2-8-1-9-2-4v-5l7-6z" fill="#FDCEAE"/>
<path transform="translate(1293,978)" d="m0 0h6l-3 5-25 14-17 10-5 3-4 4h-2v2l-7 3-10 4-5 3-4 4h-2v2l-12 6-3 3-16 8-9 5h-2l-1 3-19 9-14 2h-63l-131-1v-1l199-1 28-16 24-13 15-9h3v-2l9-5 6-3 15-9 11-6 7-4 19-11 7-5h2v-2z" fill="#4A596F"/>
<path transform="translate(817,311)" d="m0 0h3l1 3 1 14v28l-6-1-30-18-1-6 10-7z" fill="#9DA6AB"/>
<path transform="translate(1089,468)" d="m0 0h3l1 3 1 26-1 15-3 1-19-11-13-8v-7l16-10 14-8z" fill="#9BA4AA"/>
<path transform="translate(545,154)" d="m0 0 4 1 1 37-1 7-4-1-19-11-11-7-2-2 1-5 19-12z" fill="#9BA4AA"/>
<path transform="translate(924,651)" d="m0 0h2v79l5 2 1-4h1v33l-3 3h-2l1 3-29 16-14 9-11 6-18 10-19 11-26 15-8 4 1-4 16-10 20-11 17-10 19-11 21-13 21-11 6-4 1-6-8 3h-12v-1l14-1v-2h4z" fill="#A0AFB2"/>
<path transform="translate(1337,141)" d="m0 0 4 1 3 11v8l-6 5-4 13-3 16-3 28-1 13v85l-4 6-7 8-4-1-7-15-1-9 3-45 4-32 7-38 6-26v-16zm-1 5-10 9 1 6v9l-6 23-6 29-6 43-1 8-1 19v27l5 10 4 2 7-6 2-7v-88l3-32 4-23 3-11 1-3 5-2 1-7-4-6z" fill="#BEB0AD"/>
<path transform="translate(1330,119)" d="m0 0 4 2 3 14-1 6-3 2-2 5-7 6v12l-7 30-7 40-2 16-2 3v-23l5-45 4-23 8-29 5-13z" fill="#E5E8EE"/>
<path transform="translate(551,207)" d="m0 0 2 1v108h2l1-6 6 1 14 8 9 6-3 3-18 11-15 9-1-3v-15l-1-17 5 1z" fill="#99A3A8"/>
<path transform="translate(935,565)" d="m0 0 2 2 1 18 1 175-3 3h-3v-161l1-35z" fill="#5CA987"/>
<path transform="translate(824,441)" d="m0 0h1v32l2-1 2-5 3-1 17 11 8 5-1 3-18 10-15 9h-2v2l-2-1v-32l-5-4-5-3 3-1 11 6z" fill="#9AA2A9"/>
<path transform="translate(420,613)" d="m0 0 4 2 11 8 16 9 12 5 17 4v1h-6v2l29 2 11 1 5 5 3 8 3 4 3 16 4 18 1 18v31l-1 17-2 6 10-1-2 2-7 2-25-1-3-2 7-1h17l1-4v-53l-2-19-5-27-6-15-1-1-12-2-21-1-22-5-16-8-11-7-6-4v-2l-4-2-2-3z" fill="#273241"/>
<path transform="translate(1314,100)" d="m0 0h5l1 12 2 4 3 2-1 5-7 18-3 5-1 4 1 2h-2l-1 8h-2l-1 8-1 5-3 19-1 13-1 7 1 6-2 13h-1l-1-15v-39l1-14 3-7 3-2-1-14 4-11 3-9 5-14v-3l-7 2-7 3-4 1 4-4z" fill="#877E90"/>
<path transform="translate(1179,731)" d="m0 0 1 2-4 8-13 9-16 8-12 7-7 5-4 2-5 5-10 3-11 7-10 5-3 2-7 1-4 2v-5l25-15 16-9 24-14 16-9z" fill="#1F3041"/>
<path transform="translate(508,290)" d="m0 0 8 4 9 6 6 3v2h-3l1 22-1 1v21l5 1 1 5-8 6-1-14-4-3-1 3-5-10v-2l-3-1-1-35-4-3z" fill="#9BA4A9"/>
<path transform="translate(1046,300)" d="m0 0 5 1 3 3-1 23v83l-4 3-4-3v-35l1-9v-41l-3-15v-7z" fill="#A3B0B4"/>
<path transform="translate(664,401)" d="m0 0 2 1 1 26v115h-5l-1-1v-139z" fill="#8BA3A2"/>
<path transform="translate(1392,105)" d="m0 0 4 1 10 8 2 3-7-1-2 6-1 2h-2l-2 4-5 8-7 2-4 8-4 3-4 12v3h-2l-1 5-6 14v9l-1 4h-2l-1 7h-2l-1 9h-2l-1 8-2 4-3 18-4 5 1-11 6-26 13-40 11-25 12-25z" fill="#8EA4A3"/>
<path transform="translate(788,957)" d="m0 0 2 1-4 8-21 13-17 9-16 4h-21l-11-3-10-4-5-5-4-5v-2l5 2 12 6 7 2 15 1h13l7-2 10-3 14-8 3-1v-2l11-6 4-3z" fill="#4E5C72"/>
<path transform="translate(674,710)" d="m0 0h2l-1 4-3 1v2l-11 6-9 5h-2v2l-7 2v2l-8 4h-2v2l-7 3-7 4h-2l-1 3-7 3-9 5h-2l-1 3-7 3-24 14-14 8-2-1 1-5 14-8 15-9 9-5 6-4 3-1 4-4 7-3 7-5 7-4 7-3 8-5 6-4 7-3 6-4 7-5 4-2z" fill="#586478"/>
<path transform="translate(778,339)" d="m0 0 4 1 11 6 14 8 12 7 6 4v68h-1v-65h-2v2h-5-2v5h-3v-2l-7-2-12-6-5-2v-6l9 2 5 3v-4l-5-1-8-5-4-4-3-1-3-3 1 68h1l1 9 1 2h-3l-1 22h-1z" fill="#273643"/>
<path transform="translate(779,344)" d="m0 0 3 1v2l4 1v2l4 2 8 5 5 1-1 4-5-2-9-3 1 6 7 3 16 7v2h3l-1-6h3l5 1v-2h2l1 73-2 4-3-1h2v-55l-14-8-25-15-3-1 1 47-2 4z" fill="#213546"/>
<path transform="translate(1332,414)" d="m0 0 3 2 2 17 3 17 2 12 3 11v21l-1 15-3 6-4 1 1-5 2-3-1-5-5-5-1-5v-36l-1-30-1-12z" fill="#344453"/>
<path transform="translate(1044,376)" d="m0 0 1 4-11 8-9 8-16 9-18 8-16 8-15 8-17 10-12 7-18 7-3-1 18-10 28-16 22-12 24-13 28-17z" fill="#FCFCFC"/>
<path transform="translate(669,397)" d="m0 0h2l-1 3v85l1 1 1 15h-1l-2 29 3 1 1 5v3l-6 3-1-8v-106l-1-26-3 1v139l3 2-6 1v-131l1-13z" fill="#A1B0B3"/>
<path transform="translate(1136,339)" d="m0 0h11l7 3 7 5-1 2 5-2 5-3 6 1v1h-5v2l-11 4-6 4-8 2v2l-6 3-5-1-14-8-3-3 1-3 9-6z" fill="#CBD3D7"/>
<path transform="translate(736,921)" d="m0 0 4 2 3 34 1 21 6-1 5-3 7-2-2 3-9 4-8 3-9 2-1 1h-13l-15-1-10-3 4-1h6l3 2 14 1 4 1 1-2 4-1v-20l3-37z" fill="#ACB2B6"/>
<path transform="translate(413,401)" d="m0 0 5 1 2 3h2l2-3 5 1-3 11-3 6-11 7-4 5-4-2-2-2 1-5-2 4-4 1v2l-4-1v-13l5-3 5-7z" fill="#A1B0B3"/>
<path transform="translate(905,575)" d="m0 0 3 1-4 5-8 6-30 18-11 6-30 18h-2v2l-7 4-8 3-6 2v-5l19-11 15-9 44-26 18-10z" fill="#1F3041"/>
<path transform="translate(405,549)" d="m0 0 2 1v5l-12 7-27 18-7 2-11 7h-3v2l-7 4-9 3-11 6-13 7-4-2 5-3 4-1v-2h2v-2l8-3 4-4 9-4 3-1v-2l5-2 6-4 5-2 3-1v-2l10-3 1-3 8-4h2v-2l10-6 6-1 1-3z" fill="#4F5E73"/>
<path transform="translate(473,764)" d="m0 0 9 3 7 2v1l-9-1-3-1-1 2-2 14v11l-1 19-1 7 9-2-4 3-5 3-15 3 1-10 3-17 6-20z" fill="#ADB3B7"/>
<path transform="translate(779,446)" d="m0 0 6 3v3l2 3v69l-5 4h-7l-1-5 1-18 3-23 3-6 2 2v-23l-3-1z" fill="#7D9297"/>
<path transform="translate(799,463)" d="m0 0 4 1 3 2 3 1 1 46v36h-3l-1-34-6 1-2-13v-39z" fill="#5A9983"/>
<path transform="translate(777,142)" d="m0 0 4 2v25l-1 13v69l-4 2-1-1-1-86-2-10 1-11 1-2z" fill="#9BA5AA"/>
<path transform="translate(776,609)" d="m0 0 2 1-1 4 1 2-23 13-11 6-12 3h-22l-16-4-5-3 2-1 4 1v2l11-1h4l-2-2 22-1 10-2 4-2h5v-2l16-8zm-81 21 2 1z" fill="#66758E"/>
<path transform="translate(1383,98)" d="m0 0 3 1-2 5-15 16-5 5-8 6-9 4-5 1-2-2-1-5v-9l8-3 13-5 19-10 3-1z" fill="#CFACA3"/>
<path transform="translate(908,579)" d="m0 0 2 1-7 8-16 10-18 10-15 9-18 11-17 11-15 7-3-1v-9l1 4 10-5 8-3 3-1v-2l9-5 23-14 16-9 22-13 8-6h3l-4 5h2l2-4z" fill="#75818F"/>
<path transform="translate(1050,496)" d="m0 0 3 1h-2v106l-4-2-4-5-12-7-23-13-42-24-7-5v-2h6l20 11 17 10v2l5 1v2l5 1v2l5 1 2 1v2l5 1v2l5 1v2l5 1v2l5 1v2l5 1 5 4z" fill="#6EA18F"/>
<path transform="translate(863,187)" d="m0 0 6 1 15 9 5 4-1 4-11 6h-7l-12-6-9-6 1-4 11-7z" fill="#5D6B85"/>
<path transform="translate(779,421)" d="m0 0 1 2h5v2l7 2 9 6-1 3h-3l-1 3-1 4 2 9 2 3h3l5 2 3 2v2l7 1h3l3 5v3l-6-1-21-12-10-6-7-5z" fill="#182B3C"/>
<path transform="translate(632,419)" d="m0 0h2v2l-5 4-4 5-5 3h-4v2l-15 8-9 5-3 3-9 6-9 3h-2v2l-5 2-5 4-7 3-3 3-9 3-2-4 10-6 29-17 20-12 7-3 18-11 6-3z" fill="#263747"/>
<path transform="translate(1049,765)" d="m0 0h2v5l2 1-26 15-13 6-10 2h-26v-2l-7-1-2-2-4-3v-3l18 3 20 1 15-4 15-8h3v-3l5-3h4v-2z" fill="#54647D"/>
<path transform="translate(590,31)" d="m0 0 7 1 15 8 5 4v3l-11 7-7 1-10-5-11-8 1-5z" fill="#5B6A85"/>
<path transform="translate(802,676)" d="m0 0h2l6 10 8 7 21 13 18 10 16 9 20 12 9 8-2 2-7-3v-2l-7-2v-2l-7-2v-2l-6-2-6-3v-2l-10-4v-2l-5-1v-2l-7-2v-2l-7-2v-2l-7-2v-2l-7-2v-2l-5-1v-2h-3v-2h-3l-1-2-5-3-3-6v-2h-2z" fill="#61A98A"/>
<path transform="translate(247,291)" d="m0 0 2 1-6 4-1 2h-3v2l-10 4-2 2-7 3-7 4-14 7-8 3h-21l-17-4-2-2 2-1-3-2 1-2 16 3h22l18-6 21-11 5-1 2 1 5-2 4-4z" fill="#62708B"/>
<path transform="translate(1074,833)" d="m0 0 3 1 3 6 6 7 21 14 24 14 18 10 24 14 2 4h-4l-10-4-6-4v-2l-7-2v-2l-9-3v-2l-5-1v-2l-6-2-8-4v-2l-5-2-16-9-3-1v-2l-5-1v-2h-3v-2h-3l-1-2-5-3-5-6z" fill="#61A88A"/>
<path transform="translate(1466,436)" d="m0 0h3l1 10-5 3-5-4-6 2-7 2-1 5-16 8h-7l-12-2v-8l1-2 12-6 3-1 1 3 1 11 5-1 1-2 1-12 8 1h10l8-4z" fill="#566479"/>
<path transform="translate(934,560)" d="m0 0h3l1 2 1 20 1 146 1 28 2-2 5-1v8l-1 2-5-1 3 5 3 2 2 8-1 4h-8l-6-4-1-12-6 1v-2l5-3v2l5-3-1-175-1-18h-2z" fill="#97A8AA"/>
<path transform="translate(869,914)" d="m0 0 3 1-26 15-54 32-6 3 2-4 1-5h2l1-3 21-12 7-2v-2h3v-2l14-7h2v-2l7-4 7-2v-2l4-1-1 3 5-1 3-3z" fill="#626F83"/>
<path transform="translate(398,467)" d="m0 0h7l5 25 11 63 4 10 4 6 2 1-1 7-8 25-2 7h-1v-7l3-13 2-12 3-6-6-11-5-13-5-17-4-11-3-47v-6h-6z" fill="#AEB4B8"/>
<path transform="translate(1357,833)" d="m0 0 2 1-27 16-15 9-16 9-22 13-67 39-25 14-24 14-22 12-2-1 10-6 29-17 24-14 21-12 48-28 11-6 57-33z" fill="#CDD5D9"/>
<path transform="translate(1179,365)" d="m0 0h2v6l-8 9-13 8h-2l-1 3-10 7-1 4-5 4-6 3h-5l-2-2-1-5 9-5 5-5 7-6 14-8 5-3 9-9z" fill="#2F424D"/>
<path transform="translate(780,335)" d="m0 0 13 5 25 15v2l5 2 4 4 1 7v84l-1 17h-2v-106l-5-2-9-6-11-6-20-12-2-3z" fill="#D8E0E5"/>
<path transform="translate(986,746)" d="m0 0 6 1 5 2v2l5 2 10 6-1 3-10 6-4 1-12-5v-2l-6-2-6-3 2-4z" fill="#415268"/>
<path transform="translate(508,962)" d="m0 0 4 2v1l-7 2-4 3-2 4v15l7 14 3 14 1 12h3v-23l3-4h10l2 1v2l4 2 8 5 4 4v2l6 2 2 1h13l9-5h2v-2l5-5 8-7 3-3-1 4-1 2h-2l-2 4-7 7-12 8-3 1h-7l-14-5-8-7-10-7h-6l-3 4v20l-2 2-5-1-2-3-4-23-7-16-1-9 3-10 5-5z" fill="#A6ADB2"/>
<path transform="translate(798,593)" d="m0 0h2v7l-4 1v2l-2 1-1 3-14 8-4-1 2-1-1-3-11 6-13 7h-3v2l-12 4h-15l1-2 16-3 8-3 7-2v-2l5-3h2l2-4 10-6 4-2 9-5 9-2z" fill="#30404D"/>
<path transform="translate(539,549)" d="m0 0 7 6 8 7 10 9 10 5 12 3 25 2 30 1-2 2-7 2-1 5h-2v8h-1l-3-12-7-3-31-2-13-3-13-7-10-9-5-1v2h-2v2h-2l-3 11v11l9 29 3 12v10l-2-3-1-10-8-27-4-16z" fill="#F0C6AC"/>
<path transform="translate(253,278)" d="m0 0 3 1v7h-2v2h-3v2l-8 4h-2l-1 3-5 2-4-1-16 8-13 6-3 1-15 1-1-2 9-2 9-3 12-6h2v-2l14-8 16-8z" fill="#344554"/>
<path transform="translate(1337,141)" d="m0 0 4 1 3 11v8l-6 5-4 13-2 7h-2l-1 2 2-13 3-11 5-5h2v-7l-3-5-4 2-7 6 1 6v9l-6 23-6 29-5 34-2-4 2-19 7-38 6-26v-16z" fill="#CAAEA6"/>
<path transform="translate(635,53)" d="m0 0h1v8l-4 1v2l-15 10-15 9-2 7-4 1v2h-3v2l-13 6h-2v-10l5-4 14-7 10-6 21-13 5-6h2z" fill="#32454E"/>
<path transform="translate(920,767)" d="m0 0v3 2l-27 15-7 5-11 6-18 10-19 11-26 15-8 4 1-4 16-10 20-11 17-10 19-11 21-13 21-11z" fill="#AEB4B8"/>
<path transform="translate(688,387)" d="m0 0 10 4 18 10 23 13 14 8 13 8v2l4 1 5 3-1 4-11-6-16-8-14-9-26-15-16-10-4-2z" fill="#69A98F"/>
<path transform="translate(1194,722)" d="m0 0h3l1 159v32l-6 5-3 1h-8l-8-3-2-4-1-8-1-2 5 1-1-4 4 1 1-3 7-2 5-3-1 4-6 3h-4l1 4 7 4v3h-8l-5-2 1 5 2 2h15l3-2 1-190z" fill="#98ABAC"/>
<path transform="translate(767,223)" d="m0 0 2 1-10 7-19 12-13 8-11 7-10 6-21 12-16 9-19 8v-2l23-13 28-17 25-14 17-10z" fill="#FDFDFD"/>
<path transform="translate(831,466)" d="m0 0 9 5 15 10 2 1-1 3-11 6h-4l-4-5-7-3-7-1-1-8h6l1-7z" fill="#8BA3A2"/>
<path transform="translate(1402,217)" d="m0 0h2l4 14 5 25 1 17-2-1-1-14-6-29-3-2-2 9-1 16v41l-1 40v53l-2 25-2-1 1-36v-19l1-43v-49l2-31 2-13z" fill="#526276"/>
<path transform="translate(521,344)" d="m0 0 4 2 1 1 1 13 5-4h2v36l4 1h-3l1 2h10v2l-4 1h-12l-3-5v-5l1-1v-5l-5-12v-5l-2-1z" fill="#F9F9FA"/>
<path transform="translate(1455,457)" d="m0 0h3l-1 6-5 3-13 5-5 6-4 10 4 3v2l4 1-2 1-15-4-11-3-1-4 17-9 17-10z" fill="#334452"/>
<path transform="translate(1451,526)" d="m0 0 1 3-7 7-9 6-4 4-11 6-3 2 3 2-4 4-15 9h-3v2h-4v-11l9-4 14-8 12-8 9-5 11-8z" fill="#354655"/>
<path transform="translate(529,306)" d="m0 0 5 2 3 4 1 9v13l-1 16-3 1-6-2-1-2v-19l1-2v-19z" fill="#877E90"/>
<path transform="translate(363,580)" d="m0 0 3 1-19 12-27 15-24 14-16 9-11 3v2l-8 3-9 6-4 1-1 3-9 3v2l-4 1 1-3 21-12 10-6 31-18 7-4 9-5 10-6 8-4 9-3 4-3h3v-2l8-4z" fill="#616E84"/>
<path transform="translate(1366,476)" d="m0 0 4 1 12 5 10 7v2l-16 8-5 3h-4l-1-2z" fill="#2B3846"/>
<path transform="translate(639,583)" d="m0 0h12l1 1v14l-1 2h-2v2l-6 1h-10v-2l-4-2v-8h2v-5z" fill="#90A2A4"/>
<path transform="translate(794,393)" d="m0 0h11l4 2 1 2v7l-2 6-1 7h2v2l-5 5-3 1v-2l-3-1-4-11v-8l-1-7z" fill="#FBCCAE"/>
<path transform="translate(1073,620)" d="m0 0 7 3-1 41-3 7h-4l-1-10v-37z" fill="#5CA987"/>
<path transform="translate(1449,887)" d="m0 0h2l-1 7-2 5-7 6-25 14-10 4-20 12-18 10-17 10-11 7-11 6-3 2-3-1 5-4 7-4h3v-2l8-4 10-6 9-5 13-8 5-3 7-2v-2l4-2h3v-2l16-9 12-7h3v-2l10-6h3l2-4 5-5-3-2z" fill="#ACB3B9"/>
<path transform="translate(1330,119)" d="m0 0 4 2 3 14-1 6-3 2-2 5-7 6-2 6-3 2-1-1v-9l7-23z" fill="#EAF4F9"/>
<path transform="translate(510)" d="m0 0h20v18l-5 3-17-7z" fill="#CDD5D9"/>
<path transform="translate(753,570)" d="m0 0h9l5 2 2 2v6l-6 9-7-1-9-4-4-3 1-6 3-3z" fill="#26404B"/>
<path transform="translate(645,616)" d="m0 0 2 1-13 8-27 15-39 23-10 5v52h-1l-1-41-1-8v-9l6-1 14-9 16-9 3 2 16-9 24-14z" fill="#C0C9CD"/>
<path transform="translate(1089,468)" d="m0 0h3l1 3 1 26-1 15h-3v-41l-5 3-5 2v2l-5 5-2 3h-2l-2 7v3l1 3 11 6 4 4-5-2-21-12-1-1v-7l16-10 14-8z" fill="#A5B1B4"/>
<path transform="translate(1165,1053)" d="m0 0 2 1v2l6-1-3 3-17 8-14 2h-63l-131-1v-1l199-1z" fill="#73808B"/>
<path transform="translate(1412,919)" d="m0 0 2 1-50 30-26 15-25 15-27 15-17 10-8 4-2-1 13-8 24-14 10-6 9-5h2v-2l5-1v-2l7-3 14-8 15-9 21-12 19-11z" fill="#CDD5D9"/>
<path transform="translate(1059,609)" d="m0 0 5 2 8 5-3 1-2-1v35l1 8 4 2 1 10 2 2-6 2-1-13-6-5-2-1v25h-1l-1-26 2-4v-37z" fill="#9BA5AB"/>
<path transform="translate(1285,553)" d="m0 0 2 1-15 9-11 7-18 13-18 11-15 7-16 6-5 2v-2l28-15 23-13 28-17z" fill="#FDFDFD"/>
<path transform="translate(356,465)" d="m0 0 4 2-18 10-10 6-71 41-1-3 16-10 29-17 13-8 12-6 10-6z" fill="#AEB4B8"/>
<path transform="translate(1102,624)" d="m0 0 6 2 11 7 2 3 8 3v2l-10 6-5-1-11-8-6-4 3-9z" fill="#8EA5A4"/>
<path transform="translate(667,720)" d="m0 0 2 1-11 8-29 17-28 16-18 10-26 13-2-1 8-6 10-5 20-12 4-1 3-3 12-7 8-2 14-8 14-9 11-6z" fill="#CDD5D9"/>
<path transform="translate(418,608)" d="m0 0 2 3v2h-2v11l-2 20v11l3 23 3 18 6 34 1 4 8 7 5 6-4-2-6-6-3 1-2-5-3-7-8-44-3-15v-24l2-20z" fill="#A4ACB1"/>
<path transform="translate(506,181)" d="m0 0 6 2 11 7 7 3 5 3v1h-5l-1 1h-6l-3-2v-2l-5-1v-2l-7-2v70l-1 28h-1z" fill="#4B5A6F"/>
<path transform="translate(507)" d="m0 0h3l-1 12-1 82h-4v-80l2-1z" fill="#A7B1B5"/>
<path transform="translate(402,442)" d="m0 0h1l-1 7h-4l-1 3 6 2 1 13h-6l-6-3-2-5 1-9-16 8-14 8h-3l1-3 20-11 11-6v2l2 1 1-3z" fill="#9CAAAC"/>
<path transform="translate(417,232)" d="m0 0 9 2 15 9 11 6 22 13 20 11 10 7h2v6l-11-7-5-3v-2h-3v-2l-4-1-3-1v-2l-9-3-10-6-11-6-17-10-10-6-6-4z" fill="#98A6A9"/>
<path transform="translate(1371,149)" d="m0 0h2l-3 15h-2l-1 5-6 14v9l-1 4h-2l-1 7h-2l-1 9h-2l-1 8-2 4-3 18-4 5 1-11 6-26 13-40z" fill="#93A6A7"/>
<path transform="translate(1341,247)" d="m0 0h1v10l-3 42-2 52-5 1-18-6-14-7-1-2v-13l2-39 1-27h1v56l-1 9v14l7 4 14 6 12 3 1-36 3-51z" fill="#9EAAAD"/>
<path transform="translate(1165,941)" d="m0 0 2 1-4 4-23 13-13 8-27 15-22 13h-3l2-4 13-8 24-13 15-9 22-13 8-3z" fill="#A6B1B5"/>
<path transform="translate(498,810)" d="m0 0 5 1-2 4-8 5h-2v2l-5 1v2l-14 6-10 3-5-1v-5l4-2 11-2 7-4h2l1-3 7-3 1-1h6v-2z" fill="#4C5A71"/>
<path transform="translate(1409,416)" d="m0 0h2v32l-2 2h-5l-3-3-1-14 2-12 3-1v-2z" fill="#334452"/>
<path transform="translate(906,213)" d="m0 0 1 2-7 8-5 3-4 4-10 4-8 6-7 7h-3v2l-7 5h-2v2h-2l-2-8 4-1v-2l14-8 6-4 16-8 14-10z" fill="#2C4047"/>
<path transform="translate(632,421)" d="m0 0 2 1-3 5-7 6-5 3-5 2-6 4-7 3-3 1v3l-8 3-4 4-17 10h-4l-1 3-17 10h-5v-3l9-3 1-3 7-3 6-5h4v-2l12-5 8-5h2l1-3 12-7 10-5h2v-2l5-2 6-4z" fill="#888F9A"/>
<path transform="translate(540,891)" d="m0 0h1l1 22 3 5v15l1 16 4 20 6 17-1 2-5-9-4-8-3-14-2-13-2-31v-16z" fill="#FECFAF"/>
<path transform="translate(814,313)" d="m0 0 1 3-4 2-1 3h-2v2h-2l-1 3h-2v2l-4 3v4h-2l1 7 5 1v2l5 2 7 5-2 1-24-14-4-4 1-5 16-10z" fill="#A4B1B4"/>
<path transform="translate(1177,735)" d="m0 0 1 2-2 4-13 9-16 8-12 7-7 5-4 2-5 5-10 3-11 7-10 5-3 2h-5l3-2h2l1-3 7-4 7-3 4-3h2v-2l9-4 18-9 2-3 5-3 6-3 5-2 1-2 8-2 5-5 9-6h2z" fill="#606A81"/>
<path transform="translate(229,655)" d="m0 0 3 1-13 8-15 8-13 4-13 2-12-1-1-1-11-2-11-7-5-6 3-1 14 7 9 2h27l9-1-2 2-17 3-18-1-16-5 10 5 9 2h22l14-4 16-8z" fill="#5B6982"/>
<path transform="translate(1182,370)" d="m0 0 1 3-2 9-3 3-3 4-5 2-2 3h-4l-1 3-10 6-12 3 5-6 2-4 10-7 7-3 7-2 5-5z" fill="#67A98E"/>
<path transform="translate(1072,747)" d="m0 0h1v12l-15 9-4 2h-3v-5l-6 2v2l-7 3-6 3-3-1h2v-2l8-5 12-6 14-8 6-4z" fill="#17293A"/>
<path transform="translate(783,965)" d="m0 0 3 1-21 13-17 9-16 4h-21l-11-3-10-4-5-5-4-5v-2l5 2 1 4 9 5 7 3 13 2h8l13-2 7-2 12-5h4l1-3 13-8 5-1 1-2z" fill="#636D85"/>
<path transform="translate(1453,530)" d="m0 0 2 2v36l4 1-5 2v-34l-18 13-12 6-3 1-1 3-5 3-2-1 4-3h2l1-3-3-2 7-5 11-6 12-8z" fill="#58687E"/>
<path transform="translate(717,591)" d="m0 0 7 3 7 5 4 2-2 4-6 4-5-1-6-4v-2l-7-1-3-2 1-3z" fill="#0C4059"/>
<path transform="translate(1428,427)" d="m0 0h5l6 12 10 4v1l-8-1-5-1v12l-3 4-5-1-1-14-4 3-2-1 5-5 2-4z" fill="#8A9EA1"/>
<path transform="translate(776,609)" d="m0 0 2 1-1 4 1 2-23 13-11 6h-6l2-1 1-3 3-2h3l-1-2-4-1 7-1v-2l16-8z" fill="#58667A"/>
<path transform="translate(1080,624)" d="m0 0h2l1 5-1 77h-3v-35l-3-1 2-6 1-34z" fill="#878393"/>
<path transform="translate(779,170)" d="m0 0h1v81l-4 2-1-1v-43l2 2 1-39z" fill="#A9B6B9"/>
<path transform="translate(815,470)" d="m0 0 4 2 1 1v32l-4 1-4-1v-28z" fill="#877E90"/>
<path transform="translate(1052,607)" d="m0 0 5 2 2 8v65l-4 1-1-68z" fill="#5CA987"/>
<path transform="translate(907,741)" d="m0 0 7 1 4 5 2 1 1-5 2 3v11h-3v2l-5 1h-9l-5-3v-7l7 1 3 1v2h6l-4-4-6-3z" fill="#3B4C60"/>
<path transform="translate(1320,41)" d="m0 0 2 1v2l8 2h21l14-1 5 5 2 8 1 11 3 6h5l8-8h10v4h-9l-5 2-1 3-3 2h-6l-3-4-2-5-1-14-2-5-2-1h-10l-7 1h-15l-10-3-3-3z" fill="#BEA19E"/>
<path transform="translate(934,560)" d="m0 0h3l1 2 1 20 1 146 1 28 2-2 5-1v8h-1l-1-5-3 3-4 1-1-26-1-149-1-18h-2z" fill="#8BA3A2"/>
<path transform="translate(420,613)" d="m0 0 4 2 11 8 16 9 12 5 17 4v1l-10 1-10-2-10-3-14-8-10-7v-2l-4-2-2-3z" fill="#312A2E"/>
<path transform="translate(637,58)" d="m0 0 1 4-5 8h-2v2l-4 1v2l-4 1v2l-6 3-10 6-6 2v-6l9-6 16-10 4-3h2v-2l3-1z" fill="#59687C"/>
<path transform="translate(229,652)" d="m0 0 2 1-5 5-17 10-13 5-8 2h-22l-12-3-8-5 2-1 15 5 18 1 19-3v-2l10-3v-2l7-3 4-3z" fill="#415167"/>
<path transform="translate(591,756)" d="m0 0h6l-1 3-6 5-24 14-14 8-2-1 1-5 14-8 15-9 9-5z" fill="#48586F"/>
<path transform="translate(851,920)" d="m0 0h3l-2 4-11 6-9 6-20 12-9 5-5 3v-3l4-6 11-6 7-2v-2h3v-2l14-7h2v-2l7-4z" fill="#4E5D72"/>
<path transform="translate(484,404)" d="m0 0 6 1 10 7 1 4h8v1l-13 2-2 2-1 4v13l-2-2-7-25-1-6z" fill="#D1ACA2"/>
<path transform="translate(413,434)" d="m0 0 2 4 2 6 3 11 4 10 5 5-8-1v2l3-1 1 7-3 3-2-5v-2l-3-1v-3h-2l1-4-2-1-1-8-1-3v-16z" fill="#EE4358"/>
<path transform="translate(247,291)" d="m0 0 2 1-6 4-1 2h-3v2l-10 4-2 2-7 3-7 4-14 7-4 1h-9l2-2 11-3 8-4-2-2 23-12 5-1 2 1 5-2 4-4z" fill="#56657B"/>
<path transform="translate(591,999)" d="m0 0 1 3-2 3h-2l-2 4-7 7-12 8-3 1h-7l-14-5-8-7-8-6-2-3h-8l-2 3-1 23-4-1h3v-23l3-4h10l2 1v2l4 2 8 5 4 4v2l6 2 2 1h13l9-5h2v-2l5-5 8-7z" fill="#878B9A"/>
<path transform="translate(578,449)" d="m0 0 4 1-1 3-5 2-5 5h-2v2l-5 2-5 4-7 3-3 3-9 3-2-4 10-6 29-17z" fill="#263342"/>
<path transform="translate(778,339)" d="m0 0 4 1 11 6 5 4v2 3l-6-2-3-3-7-3-3-3 1 68h1l1 9 1 2h-3l-1 22h-1z" fill="#48576D"/>
<path transform="translate(920,771)" d="m0 0 2 1-19 12-21 12-24 13-25 15-16 10-8 4-2-1 5-4 23-13 24-14 23-13 10-6 21-12z" fill="#CDD5D9"/>
<path transform="translate(660,414)" d="m0 0h1l1 116v12l3 2-6 1v-130z" fill="#A0AFB2"/>
<path transform="translate(862,192)" d="m0 0h6l12 7 4 2-4 4-4 2-7-1-13-8 1-3z" fill="#3E4F65"/>
<path transform="translate(1285,175)" d="m0 0h3l1 4v18l-2 20-1 3-1-1-1-17 2-9-3-3-1 5-3 5h-2l-2 5-1 3h-2l-1 2 1-4 7-16 4-9z" fill="#516175"/>
<path transform="translate(840,621)" d="m0 0 3 1-4 4-20 13-15 7-3-1v-9l1 4 10-5 8-3 3-1v-2l9-5z" fill="#89999E"/>
<path transform="translate(909,214)" d="m0 0h1l-1 9-8 7-7 5-11 6-5 3h-2v-2l-3-1 6-5 14-8 9-6z" fill="#57667B"/>
<path transform="translate(590,35)" d="m0 0 7 1 13 8v3l-6 3h-6l-11-7-2-4z" fill="#3E4F65"/>
<path transform="translate(1067,616)" d="m0 0h7v3l-2 5-1 37-4-2-1-8v-33z" fill="#8AA2A1"/>
<path transform="translate(807,463)" d="m0 0 3 1 1 3 5 2-3 8-1 28 6 1-5 4-1 1-1 38h-1l-2-82-4-1z" fill="#8B9D9F"/>
<path transform="translate(1324,966)" d="m0 0 2 1-4 5-5 1v2l-16 9-7 4-9 2v2l-7 3-9 5h-2v2l-12 6h-2v2l-5 1 4-4 18-10 24-14 4-4-1-2 6-2-2 3 5-2z" fill="#5A6880"/>
<path transform="translate(1051,493)" d="m0 0 7 2 10 4 20 12 3 3 7 4v3l-5-2-7-3-11-6-17-10-7-5z" fill="#D4DBE1"/>
<path transform="translate(528,433)" d="m0 0h1v11l-9 6-4 2-7-1-3-2 1-4 6-3h3v-2l3-3 7-1z" fill="#293341"/>
<path transform="translate(788,498)" d="m0 0 5 2 5 4-2 14 2 1-9 5h-2v-23z" fill="#CDD5D9"/>
<path transform="translate(939,583)" d="m0 0h1l1 80v49h3l1 4-5 2v5h-1z" fill="#A1B0B3"/>
<path transform="translate(449,752)" d="m0 0 5 1 5 3v2l17 4 8 3 22 6 29 1-2 2-21 1-13-2-23-7-9-3-14-7z" fill="#49586E"/>
<path transform="translate(646,612)" d="m0 0 2 1-1 3-22 12-27 16-5 2-1-3 9-6 10-5 25-15z" fill="#ACB3B7"/>
<path transform="translate(807,466)" d="m0 0 2 1 1 46v36h-3z" fill="#5B6A87"/>
<path transform="translate(776,561)" d="m0 0h8l4 3 6 12 7 11 1 4v10l-8 5v-3h2v-2l3-2 1-6-6 3 1-4h2l-3-9h-2l-3-7-2-5-1-3h-2v-2l-4-1-1-3z" fill="#3A4B59"/>
<path transform="translate(365,463)" d="m0 0 2 1-20 12-43 25-17 10-16 10-8 4-2-1 9-6 26-15 24-14 21-12 17-10z" fill="#CDD5D9"/>
<path transform="translate(1049,304)" d="m0 0 2 1v31l-1 40-2-4-1-33-1-3 1-31z" fill="#9BA4AA"/>
<path transform="translate(1420,446)" d="m0 0 5 1 1 7 1 6h3v2h-7l-12-2v-8l1-2z" fill="#536276"/>
<path transform="translate(418,613)" d="m0 0h1v16l-1 12v15l4 26 2 18 3 18 1 1v11h-1l-6-34-5-31-1-10v-11z" fill="#526079"/>
<path transform="translate(795,381)" d="m0 0h6l5 5 4 7-1 4-1-2-3-1-11-1v8l1 2v6l-3-1v-20z" fill="#793013"/>
<path transform="translate(507,178)" d="m0 0 7 2 7 3 21 12 5 5v2l-8-2-5-4-7-4-7-3-9-6-4-2z" fill="#DCE5EA"/>
<path transform="translate(1369,482)" d="m0 0h7l9 5 2 2v4l-11 2-5 2v2h-2l-1-4z" fill="#132536"/>
<path transform="translate(1395,465)" d="m0 0h5l11 7-2 4-3 2h-8l-9-6v-4z" fill="#9EADB0"/>
<path transform="translate(542,156)" d="m0 0 2 1-11 8h-2v2l-5 3-2 12 1 3 3 1-2 1-11-7-2-2 1-5 19-12z" fill="#A3B0B3"/>
<path transform="translate(635,53)" d="m0 0h1v8l-4 1v2l-15 10-15 9-1 6h-1v-7l2-3-2-1 7-4 21-13 5-6h2z" fill="#344655"/>
<path transform="translate(810,420)" d="m0 0 7 6 4 5 1 5v8l-4-1-10-6 2-1-1-6 1-8z" fill="#C7D0D4"/>
<path transform="translate(1060,656)" d="m0 0 5 2 4 4v13l2 1-11 5z" fill="#CDD5D9"/>
<path transform="translate(403,422)" d="m0 0 1 2-1 4 4 5-5 8-7 3h-3v-15l5 1v-2l4-1 1-4z" fill="#9AA4A9"/>
<path transform="translate(424,402)" d="m0 0 5 1-3 11-5 5-6-1-2-4h-2l1-5 4-4h6z" fill="#9DA4A9"/>
<path transform="translate(663,608)" d="m0 0 4 5 5 1v2h2l1-4 4 8 6 7 4 2-4 1-7-3-3-2-9-3-3-3-1-8z" fill="#5D9688"/>
<path transform="translate(1178,369)" d="m0 0 1 2-5 8-11 7-17 10-3 1-1 6-4-2v-3l5-5 9-6 20-12z" fill="#273442"/>
<path transform="translate(623,737)" d="m0 0 2 1-4 3 8-1-3 3-7 4h-2l-1 3-7 3-9 5h-2l-1 3-4-1 3-1v-2l-3-2 5-2 4-4 7-3 7-5z" fill="#5A677A"/>
<path transform="translate(576,531)" d="m0 0 7 6 10 5 3 1 3 3 13 5 18 4 5 1h7l3-3 2 1-2 2-2 4-15-2-21-6-21-7-8-9z" fill="#CFACA3"/>
<path transform="translate(1493,409)" d="m0 0 7 1 9 5-1 4-5 3-7-1-9-5 1-4h2v-2z" fill="#9DABAE"/>
<path transform="translate(1046,300)" d="m0 0 5 1 3 3-1 23-1 44h-1l-1-66h-3v20l-2-3-2-12v-7z" fill="#B1BABD"/>
<path transform="translate(363,580)" d="m0 0 3 1-19 12-27 15-24 14-16 9-2-1 3-3 7-2v-2l10-5 6-4 5-1v-2l9-3v-2l15-8h2v-2l7-3 2-2h3v-2l8-4z" fill="#A3ABB1"/>
<path transform="translate(762,573)" d="m0 0 5 1-3 9-2 4-5-2-10-6-2-3 6-2z" fill="#3E4F65"/>
<path transform="translate(1309,252)" d="m0 0h1v13l-1 8-1 19v27l5 10 6 2-3 4-4-1-7-15-1-9 3-45z" fill="#C6ADA7"/>
<path transform="translate(1086,627)" d="m0 0 4 1 1 3v30l-3 4h-2z" fill="#67718C"/>
<path transform="translate(634,586)" d="m0 0h5l6 4 6 1v9h-2v2l-6 1h-10v-2l-4-2v-5l4 1 7 2 1 2 5 1-1-5-8-5-3-2z" fill="#5D6C86"/>
<path transform="translate(1179,899)" d="m0 0h5l10 8v3l-5 1-2 5h-10l-4-5 1-4 5 2 8 1-1-3-7-4z" fill="#5C6B88"/>
<path transform="translate(1043,717)" d="m0 0h8l7 3 6 9 10 17v12h-1l-1-9h-3l-2-7-4-5-4-8-3-3v-2l-4-2-9-4z" fill="#3C4D5C"/>
<path transform="translate(685,977)" d="m0 0 6 1 10 4 4 1v2l29 1v2l-10 2h-10l-15-3-7-4-7-5z" fill="#415268"/>
<path transform="translate(986,746)" d="m0 0 6 1 5 2v2l5 2 10 6-1 3-10 6-4 1-12-5v-2l-6-2-6-3 2-4zm0 2-8 6v2l5 3h2l1 3 8 4h7l8-5-5-5-9-5-5-3z" fill="#919EA3"/>
<path transform="translate(1411,554)" d="m0 0 4 4-5 4-3 1-3 5-5 1v2h-4v-11l9-4z" fill="#2D4149"/>
<path transform="translate(517,199)" d="m0 0 4 1v2l6 1 14 8 3 3v4h-5l-9-6-9-5-4-2-1-5z" fill="#30424E"/>
<path transform="translate(797,460)" d="m0 0 5 2-3 2v39l1 13 2 1-6 1 1-14-2-2v-27l1-13z" fill="#8BA3A2"/>
<path transform="translate(831,466)" d="m0 0 9 5 15 10 2 1-1 3-7-1-16-9-4-3v-5z" fill="#5CA987"/>
<path transform="translate(849,808)" d="m0 0 2 1-2 4-18 10-21 12-6 3 1-4 16-10 20-11z" fill="#ACB3B7"/>
<path transform="translate(1053,615)" d="m0 0h2v69l-3 2h-4l1-10 1-6v-3l3-1z" fill="#8BA3A2"/>
<path transform="translate(418,544)" d="m0 0h1l3 15 6 11 3 2-1 7-8 25-2 7h-1v-7l3-13 2-12 3-6-6-11-2-5z" fill="#B7B1B1"/>
<path transform="translate(817,692)" d="m0 0 6 2 13 7 3 3 7 3 4 3 8 4 4 3 7 3v2l5 2 9 5v3l-14-8-23-13-17-10-12-8z" fill="#9CADAF"/>
<path transform="translate(826,369)" d="m0 0 2 1v84l-1 17h-2v-25z" fill="#E9F2F7"/>
<path transform="translate(1330,770)" d="m0 0h1l1 31 1 8 9 6 13 8 5 5-1 5-6 1 2-4v-3l-9-6-14-8-2-2z" fill="#A9B2B6"/>
<path transform="translate(1322,186)" d="m0 0 1 3-7 33-5 34-2-4 2-19 7-38 3-7z" fill="#B9A4A3"/>
<path transform="translate(411,928)" d="m0 0h1l2 13 3 7 1 11v17h3l2-14 2-9 2-2h7l1 2h-5l-3 5-3 17-1 2h-6l-1-1-1-24-4-12z" fill="#A1A9AE"/>
<path transform="translate(798,593)" d="m0 0h2v7l-4 1v2l-2 1-1 3-9 5-3-1 1-4-6 1 3-3 13-7 3-1v-2z" fill="#263241"/>
<path transform="translate(398,467)" d="m0 0h7l5 25 8 46v6l-2-4-6-32-2-12-2 2-2-24v-6h-6z" fill="#D8B4A7"/>
<path transform="translate(1156,389)" d="m0 0 2 1-11 8-1 4-5 4-6 3h-5l-2-2-1-5 9-5h3l1 5 2 1 1-6z" fill="#2D434F"/>
<path transform="translate(1049,765)" d="m0 0h2v5l2 1-26 15-11 5h-5l3-3 14-6 18-11-4 1-6 1 5-4h4v-2z" fill="#435368"/>
<path transform="translate(1326,646)" d="m0 0h3v9l-3 2-8 2h-10l2-4z" fill="#344151"/>
<path transform="translate(1094,553)" d="m0 0h1l1 77-6-3 2-7v-34l1-5z" fill="#152738"/>
<path transform="translate(1089,470)" d="m0 0 2 1v41l-4-1v-24l1-16z" fill="#8CA3A2"/>
<path transform="translate(810,356)" d="m0 0 9 5 6 4v68h-1v-65h-7l-6-4z" fill="#4F5E75"/>
<path transform="translate(677,608)" d="m0 0 6 1 6 7 4 4 6 2v2l11 2 2 2-9-1-5-2h-6l-1 4-4-1-2-9-8-9z" fill="#233948"/>
<path transform="translate(532,356)" d="m0 0h2v36l4 1h-3l1 2h10v2l-4 1h-12l-3-5v-5l2-5h3z" fill="#E0E9EE"/>
<path transform="translate(612,750)" d="m0 0 4 1-10 6-13 8-11 6-8 4-3 3-14 7-2-1 8-6 10-5 20-12 4-1 3-3z" fill="#9AA6AA"/>
<path transform="translate(906,213)" d="m0 0 1 2-7 8-5 3-4 4-10 4-9 6v-3l-4 1 4-4 8-4 13-7 11-8z" fill="#334453"/>
<path transform="translate(428,730)" d="m0 0 1 3 4 2 8 7 9 5 20 12-1 2-8-2-2-1v-2l-5-2-11-5-9-10-6-5z" fill="#354252"/>
<path transform="translate(1049,377)" d="m0 0h1v14h2v17l-4 2-2-4v-17z" fill="#A0ADB1"/>
<path transform="translate(422,915)" d="m0 0 8 1 2 2-11 1-4 5-3 16h2l2 5 2 27 2-3-1 7h-3l-2-28-4-10v-11l9-11z" fill="#4E5D72"/>
<path transform="translate(419,684)" d="m0 0h1l5 30 4 20 8 7 5 6-4-2-6-6-3 1-2-5-3-7-3-15-1-16-1-2z" fill="#9AA5AA"/>
<path transform="translate(1253,926)" d="m0 0 2 1-16 10-27 15-17 11-6 3-2-1 11-7 16-10 18-10z" fill="#E5E8EE"/>
<path transform="translate(1394,463)" d="m0 0h8l12 10-2 5-7 3h-6l-10-7-3-2 1-4zm1 2-7 4 2 4 8 5h8l5-4-1-3-10-6z" fill="#57677F"/>
<path transform="translate(770,609)" d="m0 0 4 1-5 4-11 6-6 3h-3v2l-12 4h-15l1-2 16-3 8-3 13-5 4-3h3v-2h3z" fill="#2B3947"/>
<path transform="translate(1062,515)" d="m0 0 9 3 15 8 2 4-1 3-5-2-5-3v-2l-7-2v-2l-5-1-1-3-3-1z" fill="#30424E"/>
<path transform="translate(1201,1037)" d="m0 0 2 1-3 3-16 8-11 6-8 2 3-6 13-7h2v3z" fill="#47576B"/>
<path transform="translate(391,342)" d="m0 0h1v102l11-4-1 3-9 4-1 2-3-1 1-2z" fill="#857D8F"/>
<path transform="translate(1460,390)" d="m0 0h3l-1 8-6-1h-14l-5 3-2-1v-7h10z" fill="#BFC9CC"/>
<path transform="translate(500,807)" d="m0 0 4 1v6l-4 4-9 6-8 6-11 5-11 3-4-1 21-7 5-3 1-2h2v-2l5-1v-2l11-7v-2h-6v2l-4-1z" fill="#C8D0D4"/>
<path transform="translate(1052,558)" d="m0 0h1l1 14 1 6-1 7v9l4 10 2 3-5-1-4-3v-35z" fill="#162738"/>
<path transform="translate(498,810)" d="m0 0 5 1-2 4-8 5h-2v2l-5 1 2-4-8 3-6 3-2-1 7-4h2l1-3 7-3 1-1h6v-2z" fill="#515F75"/>
<path transform="translate(674,710)" d="m0 0h2l-1 4-3 1v2l-11 6-6 2-1-2-3-1 6-4 7-5 4-2z" fill="#505F74"/>
<path transform="translate(1056,590)" d="m0 0h10v14l-4 1-4-5-3-4v-5z" fill="#314350"/>
<path transform="translate(356,465)" d="m0 0 4 2-18 10-20 12-4-1 7-4 3-3 17-10z" fill="#A6B1B5"/>
<path transform="translate(817,312)" d="m0 0h2v40l-3 1-1-14 1-25z" fill="#8BA3A2"/>
<path transform="translate(662,497)" d="m0 0 2 1 1 6v39l-4-1v-37z" fill="#5CA987"/>
<path transform="translate(545,154)" d="m0 0 4 1 1 37-1 7-4-1 1-5v-33l1-4-3-1z" fill="#A5AFB3"/>
<path transform="translate(1228,1025)" d="m0 0 2 1-23 13-29 15-5 2v-2l15-8 12-6h2l1-3 9-5h3v-2z" fill="#ABB3B8"/>
<path transform="translate(901,750)" d="m0 0 7 1 3 1v2h6l1-2v4l2 3-5 1h-9l-5-3z" fill="#5E7187"/>
<path transform="translate(1101,626)" d="m0 0 6 1 14 9v4l-2 1-11-6-5-2v-2h-2z" fill="#5CA987"/>
<path transform="translate(788,357)" d="m0 0 9 2 2 4 4 1v2l5 2 6 3v3l-9-3-12-6-5-2z" fill="#2F414C"/>
<path transform="translate(880,790)" d="m0 0 4 1-5 5-22 12-7 4-3-1 7-6 20-11z" fill="#A7B2B5"/>
<path transform="translate(499,989)" d="m0 0 3 1 1 6 4 2 2 7 1 9 1 2 1-11 2-1-1 25h-3l-5-26-6-12z" fill="#505D72"/>
<path transform="translate(952,769)" d="m0 0 5 2v2l5 2 11 4v2l3 1h-9l-3-1v5l-5-2-3-8-4-4z" fill="#2F424B"/>
<path transform="translate(669,717)" d="m0 0h3l-1 3-7 3-13 8-11 6-16 10-6 3-2-1 4-4 9-5h4v-2l7-4h3v-2l4-2h3v-2z" fill="#9BA3A9"/>
<path transform="translate(253,280)" d="m0 0h2v6l-1 2h-3v2l-12 6h-2l-2-5 7-4 10-6z" fill="#273341"/>
<path transform="translate(823,368)" d="m0 0h1l1 73-2 4-3-1h2v-55l-14-8-1-2 6 2 9 4z" fill="#14425C"/>
<path transform="translate(139,301)" d="m0 0 15 6 15 4 8 2v1h-11l-17-4-3-1 1 3-2 1-2-2 1-5-3-1z" fill="#334452"/>
<path transform="translate(1300,341)" d="m0 0 2 1-1 1-3 15-4 12-3 6-7 8h-2l-1 5-1 19h-1v-23l4-5 5-2 2-6 4-10 4-16z" fill="#526276"/>
<path transform="translate(1209,1028)" d="m0 0h4v3l-7 4-1 2-8 3-12 7h-2v-4l25-14z" fill="#3F5064"/>
<path transform="translate(895,588)" d="m0 0h3v2l-11 6-17 10-5 3-3-1 1-3 11-6 17-10z" fill="#8F9AA2"/>
<path transform="translate(405,549)" d="m0 0 2 1v5l-12 7-9 6h-2v-2l6-2v-2h2v-2h3v-2l-6 3-4-1 7-3h2l1-3z" fill="#667487"/>
<path transform="translate(1329,118)" d="m0 0 5 1 3 9 2 12-7 6 1-4 3-1-1-10-2-10-3-2-2 5-7 21-2 7h-2l1-7 7-21z" fill="#CDD5D9"/>
<path transform="translate(776,609)" d="m0 0 2 1-1 4-9 6h-4v2l-6 3-4-1v-3l12-7z" fill="#55657F"/>
<path transform="translate(780,211)" d="m0 0h1v42l-1 1h-5l-2-2v-31l2-3 1 34 3-1z" fill="#CDD5D9"/>
<path transform="translate(695,551)" d="m0 0 2 1-6 5-3 6-7 7-3 4-2-1 3-10 3-5z" fill="#B3B2B4"/>
<path transform="translate(528,81)" d="m0 0 19 4 28 5 2 2-17-1-26-5-6-3z" fill="#BFCACD"/>
<path transform="translate(1354,952)" d="m0 0m-1 1m-2 1h2l-1 3-24 14-15 9-4 1 4-5 4-1v-2l5-1v-2l7-3 14-8z" fill="#CDD5D9"/>
<path transform="translate(1189,892)" d="m0 0 1 3-7 4h-4l1 4 7 4v3h-8l-6-2-1-4 2-1-1-4 4 1 1-3 7-2z" fill="#8C9A9F"/>
<path transform="translate(702,593)" d="m0 0 2 1-4 5 4 1 14 9 4 2 9-1 6-2-5 5-8 1-11-4-11-6-4-5 1-4z" fill="#154055"/>
<path transform="translate(1327,526)" d="m0 0 3 1-10 6-4 1-3 3-13 6-5 3h-3l1-4 7-3 18-10 8-2z" fill="#6A788D"/>
<path transform="translate(544,156)" d="m0 0h3v37l-2 4-2-2z" fill="#8BA3A2"/>
<path transform="translate(1032,732)" d="m0 0h5l-1 8-2 3-4-1-10-7v-2z" fill="#526277"/>
<path transform="translate(513,297)" d="m0 0h2l1 3v35l-4-1z" fill="#877E90"/>
<path transform="translate(964,781)" d="m0 0 12 2 8 2h18l18-3-2 2-15 4-20-1-16-3-2-1v3l6 2v1h-5l-6-3 2-1 2 1z" fill="#415167"/>
<path transform="translate(908,579)" d="m0 0 2 1-7 8-16 10-18 10-5 3-2-1 16-10 11-6 6-4h3v-2l-5 1 3-3 6-5 2 1-4 5h2l2-4z" fill="#656F84"/>
<path transform="translate(807,419)" d="m0 0h3l1 8-1 9-6-1-2-3v-7z" fill="#EAF3F7"/>
<path transform="translate(1343,153)" d="m0 0h1v8l-6 5-4 13-2 7h-2l-1 2 2-13 3-11 5-5h2z" fill="#BDA29F"/>
<path transform="translate(779,339)" d="m0 0 6 2 13 8v3 3l-6-2-3-3-7-3-3-3z" fill="#364556"/>
<path transform="translate(885,231)" d="m0 0 2 1-8 5-5 4 2 1v3l-11 6-10 6h-4l1-3v2h2v-2l6-4 3-1v-2l5-3 8-8z" fill="#3C4D5E"/>
<path transform="translate(1369,941)" d="m0 0 4 1-15 9-17 10-15 9-3-1 5-4 7-4h3v-2l8-4 10-6 9-5z" fill="#9CA5AA"/>
<path transform="translate(1089,790)" d="m0 0h2v2l-10 6-6 1 1 13v21h-2v8h-1l1-44 4-3 9-2z" fill="#94A5A7"/>
<path transform="translate(1125,403)" d="m0 0 4 1 1 4h5l3-2 3 1-5 3-6 1v2l-5 3h-4v-11z" fill="#4A5A67"/>
<path transform="translate(457,918)" d="m0 0 8 1v16h-1v-15l-11 2v11l3 3v4l-6-1-3-5v-2h2l1-8 1-4z" fill="#838896"/>
<path transform="translate(632,421)" d="m0 0 2 1-3 5-7 6-5 3-5 2-6 4-7 3-8 4-2-1 7-5 16-8h2v-2l5-2 6-4z" fill="#5A677F"/>
<path transform="translate(1330,186)" d="m0 0h2l-5 45-2-1v-13l2-19z" fill="#C7ACA5"/>
<path transform="translate(591,999)" d="m0 0 1 3-2 3h-2l-2 4-7 7-12 8-3 1h-7l-4-2 10-1 11-6h2v-2l5-5 8-7z" fill="#97A0A8"/>
<path transform="translate(690,985)" d="m0 0 5 1 7 3 9 2h21l10-3 4 1-13 4-5 1h-19l-9-2-6-4-4-2z" fill="#A4B0B3"/>
<path transform="translate(1185,928)" d="m0 0 4 1-4 4-17 10-3-1-10 6-2-1 16-10z" fill="#ACB3B7"/>
<path transform="translate(1080,668)" d="m0 0h2v38h-3v-29z" fill="#646F8B"/>
<path transform="translate(465,800)" d="m0 0 2 1v20l-4 3h-3v-8z" fill="#CDD5D9"/>
<path transform="translate(673,600)" d="m0 0 2 2v5l-5-3 1 4 3 2v6h-2v-2h-5l-4-6 5-7z" fill="#A5B7B8"/>
<path transform="translate(1451,526)" d="m0 0 1 3-7 7-9 6-4 4h-6l4-6 9-5 11-8z" fill="#30434D"/>
<path transform="translate(418,949)" d="m0 0h3l1 4 4-1-3 17h-2l-1 4h-1z" fill="#314450"/>
<path transform="translate(1061,758)" d="m0 0h5l-4 3-8 4h-2v4l2 1h-3v-5l-6 2v2l-7 3-6 3-3-1h2v-2l8-5 12-6h3l4-1z" fill="#1D2D3C"/>
<path transform="translate(691,625)" d="m0 0 8 1 14 3-3 2 1 2h-16v-2l-6-1 2-1z" fill="#516176"/>
<path transform="translate(619,582)" d="m0 0h22l-2 2-7 2-1 5h-2v8h-1l-3-12-5-2z" fill="#B6AEAC"/>
<path transform="translate(639,583)" d="m0 0h12l1 1v14h-1v-7h-6l-6-4-5-1-1 2v-3z" fill="#7F7A8D"/>
<path transform="translate(391,455)" d="m0 0 10 3h2l1 9h-6l-6-3-1-2z" fill="#878091"/>
<path transform="translate(1339,192)" d="m0 0 2 4 4-1 1 5v6l-2 2h-3l-2 2-2-6v-8z" fill="#ECF7FC"/>
<path transform="translate(1196,894)" d="m0 0h1v20l-5 4-3 1h-8l-8-3-2-4-1-8-1-2 3 1 3 10 2 2h15l3-2z" fill="#95A3A7"/>
<path transform="translate(779,446)" d="m0 0 6 3v3l1 3v70h-2l-1-70-3-1z" fill="#5CA887"/>
<path transform="translate(515,276)" d="m0 0h5l1 1v15l-3-1-4-6-3-4 2-4z" fill="#334552"/>
<path transform="translate(568,990)" d="m0 0h19l8 1 1 4-2 4h-1l-1-6-33-1v9l-2 2h-6l-3-3h8l1-1 1-8z" fill="#91959F"/>
<path transform="translate(699,623)" d="m0 0 8 1 6 1 17 1v1l-7 1 7 1v1h-17l-14-3-7-2v-1h6l10 3-9-3z" fill="#334553"/>
<path transform="translate(1428,427)" d="m0 0h5l6 12 10 4v1l-8-1-13-6z" fill="#CDABA3"/>
<path transform="translate(777,142)" d="m0 0 4 2v25h-1l-2-22-2 1-1 18-2-3-1-11 2-9z" fill="#AAB3B6"/>
<path transform="translate(418,608)" d="m0 0 2 3v2h-2v11l-2 20v19l-1-2h-2v-16l2-20z" fill="#9EA6AC"/>
<path transform="translate(973,780)" d="m0 0 11 1 5 1h15v1h-5v2l3 1h-18l-13-3z" fill="#324351"/>
<path transform="translate(1466,436)" d="m0 0h3l1 10-5 3-5-4-6-1 2-2 7-4z" fill="#5B677B"/>
<path transform="translate(783,965)" d="m0 0 3 1-21 13-17 9-1-2 6-3h2l1-3h4l1-3 13-8 5-1 1-2z" fill="#768193"/>
<path transform="translate(947,761)" d="m0 0h1l1 10 4 1 5 5 2 8-4-2-5-5-4-9-5-4v-3l5 1z" fill="#55647B"/>
<path transform="translate(1046,769)" d="m0 0v3l-15 9-12 6-1-4 15-8h3v-2z" fill="#5A6984"/>
<path transform="translate(146,663)" d="m0 0h5l3 2 9 2 14 1h13l14-4 4 1-8 3-9 2h-27l-12-3-6-3z" fill="#93A0A5"/>
<path transform="translate(402,442)" d="m0 0h1l-1 7h-4l-1 3 6 2-1 5-3-1v-2l-6-1v-9z" fill="#B3B6B9"/>
<path transform="translate(1118,771)" d="m0 0 2 1-4 2v2l-6 2-4 4-11 6-10 6h-5l3-2h2l1-3 7-4 7-3 4-3h2v-2l9-4z" fill="#45556B"/>
<path transform="translate(324,483)" d="m0 0 2 1-7 4 1 2-22 13-3-1 5-5 17-10z" fill="#ACB3B7"/>
<path transform="translate(817,472)" d="m0 0 3 1v32l-3-1z" fill="#6B728C"/>
<path transform="translate(423,416)" d="m0 0 1 3-9 6-6 5-1 2-3-1v-5h2l1-4 4-4 4 1v2l5-1z" fill="#B2B0B2"/>
<path transform="translate(150,312)" d="m0 0 17 3 18 1v1h-19l-3-1v2l5 1v1h-12l-5-2 2-2-3-2z" fill="#536377"/>
<path transform="translate(505,57)" d="m0 0 2 4v34l-3-1v-27z" fill="#9BA4AA"/>
<path transform="translate(779,448)" d="m0 0h1v6l4 1v21l-2-3v-2h-2l-2-10 1-4z" fill="#8BA3A2"/>
<path transform="translate(1052,371)" d="m0 0h1v39l-4 3-4-3v-35h1l1 31 1 3 3-1z" fill="#CDD5D9"/>
<path transform="translate(554,61)" d="m0 0 6 1 6 4-1 3h-13l-2-4h2v-3z" fill="#526276"/>
<path transform="translate(540,1013)" d="m0 0 4 1 13 4v2l12-3 5-1-5 4-4 2h-13l-8-4z" fill="#455567"/>
<path transform="translate(492,770)" d="m0 0h11l3 1 29 1-2 2-21 1-13-2-7-2z" fill="#64697D"/>
<path transform="translate(790,432)" d="m0 0 3 1v15l-7-6-2-3v-5z" fill="#3D4E63"/>
<path transform="translate(906,741)" d="m0 0h1l1 6 8 4 1 3h-6v-2l-10-2v7h-1l-1-9-2-3 4 1-1-3 6 3z" fill="#9AA6AB"/>
<path transform="translate(816,634)" d="m0 0m-4 1 5 1v2l-4 2-4 4-7 2-1-1v-9l1 4z" fill="#8E9BA1"/>
<path transform="translate(664,594)" d="m0 0 3 3h8v5l-2-1-6 2-4 4h-4l3-11z" fill="#8BA1A1"/>
<path transform="translate(557,311)" d="m0 0 7 1 7 4v3l4 1v3l-5-1-13-7z" fill="#8E9FA2"/>
<path transform="translate(529,765)" d="m0 0h1v5l10-1-2 2-7 2-25-1-3-2 7-1h17z" fill="#2C333F"/>
<path transform="translate(518,51)" d="m0 0 2 1-2 2v5l10 18 1 3 13 3v1l-9-1-5-2-2-5-3-1-3-7-3-3-4-8 1-4z" fill="#677489"/>
<path transform="translate(457,920)" d="m0 0h7v20l-1 5h-1v-11l1-12-9 1v8l4 5-1 5h-7v-2l6 1-2-5-2-2v-11z" fill="#46566B"/>
<path transform="translate(679,969)" d="m0 0 5 1 7 5 4 2v3l-6-2-8-5 4 6 5 4v2l-5-2-5-6z" fill="#A3ABB0"/>
<path transform="translate(663,608)" d="m0 0 4 5 5 1-2 2 3 3v5l-5-1-5-4-1-8z" fill="#7F8996"/>
<path transform="translate(660,511)" d="m0 0 2 1v30l3 2-6 1v-30z" fill="#9BACAF"/>
<path transform="translate(253,278)" d="m0 0 3 1v7h-1v-6l-11 7-8 4 1 5 4-1-1 2h-5l-1-2h-5l6-7 17-9z" fill="#30434E"/>
<path transform="translate(744,575)" d="m0 0 3 1v2l13 8h2l2-3v5l-1 1-7-1-9-4-4-3z" fill="#1A3A4D"/>
<path transform="translate(1049,304)" d="m0 0 2 1v20l-2 4h-1l-1-7v-17z" fill="#8FA3A4"/>
<path transform="translate(1303,217)" d="m0 0h1v38l-2 3-1-33 1-7z" fill="#96A8A9"/>
<path transform="translate(1320,97)" d="m0 0h4l2 11v8l-3-1-3-8z" fill="#CFACA3"/>
<path transform="translate(505,13)" d="m0 0h1l1 21v10l-1 8-2-2v-36z" fill="#9AA3A9"/>
<path transform="translate(799,949)" d="m0 0 2 1-3 5 1 3-12 7v-3l2-6h2l1-3z" fill="#606E81"/>
<path transform="translate(1046,339)" d="m0 0h2l1 33-1 4-2 1z" fill="#B3BFC3"/>
<path transform="translate(538,199)" d="m0 0 8 4 5 4 1 5h-3l-1 2-6-5-3-7z" fill="#394A5A"/>
<path transform="translate(517 1e3)" d="m0 0h8l2 3h-8l-3 4v20l-2 2-5-1-2-3v-8h1l1 7 1 3h4v-23z" fill="#A5AEB2"/>
<path transform="translate(1165,941)" d="m0 0 2 1-4 4-21 12-4-2 13-8 8-3z" fill="#A7B2B5"/>
<path transform="translate(1085,515)" d="m0 0 9 5 2 2v14h-1l-1-10-5-1-6-4v-2h4v-2h-2z" fill="#31434F"/>
<path transform="translate(783,348)" d="m0 0h3v2l4 2 8 5 5 1-1 4-5-2-6-4-6 1-2-3z" fill="#132536"/>
<path transform="translate(576,457)" d="m0 0 2 1-4 3-10 5-3 3-15 9-4 1v-3l9-3 1-3 7-3 6-5h4v-2z" fill="#646C83"/>
<path transform="translate(794,393)" d="m0 0h11l4 2 1 2v7l-2 6-1-4v-9h-12l-2 4z" fill="#D78688"/>
<path transform="translate(824,218)" d="m0 0 7 1 4 3-1 3-10 2-2-5z" fill="#526276"/>
<path transform="translate(408,811)" d="m0 0 6 1 1 10-4 3-4-7v-6z" fill="#B2B3B5"/>
<path transform="translate(654,722)" d="m0 0 2 1-2 4-4 1v2l-9 3-4-1 6-5h3v-2l3-2z" fill="#46566A"/>
<path transform="translate(936,769)" d="m0 0 2 1v2l9 2v6h-8l-3-2z" fill="#7E7C8F"/>
<path transform="translate(194,668)" d="m0 0h6l-2 2-17 3-18-1-3-2 31-1z" fill="#636C83"/>
<path transform="translate(363,580)" d="m0 0 3 1-19 12-18 10v-3l6-2v-2l7-3 2-2h3v-2l8-4z" fill="#AAB2B7"/>
<path transform="translate(496,439)" d="m0 0 11 2h9l-4 3-5 1-1 3-5-2-6-3z" fill="#3A414A"/>
<path transform="translate(1119,348)" d="m0 0h2l5 5 11 6 4 1 5-1-4 3-6 1-10-6-6-4-2-4z" fill="#80AA9D"/>
<path transform="translate(1384,105)" d="m0 0v3l-7 9-5 6h-2l-1 3h-2v2l-5 2v2l-5 3-4-1 11-8 10-9z" fill="#DBE0E5"/>
<path transform="translate(1386,100)" d="m0 0v3l-10 13-9 9-9 7-2-1 10-9h2l2-4 7-7z" fill="#FECFAF"/>
<path transform="translate(504,51)" d="m0 0 4 1v42h-1l-1-34-1 7h-1z" fill="#A5B1B4"/>
<path transform="translate(1136,957)" d="m0 0h4l-1 3-18 10-3-1 4-4z" fill="#A1ACB0"/>
<path transform="translate(1358,627)" d="m0 0 2 1-5 5-11 6-12 6-4-1 11-6z" fill="#A6B1B5"/>
<path transform="translate(1307,292)" d="m0 0h1l1 17 1 10 4 8 2 1 7-5-2 4-5 4-5-3-4-9z" fill="#FD505F"/>
<path transform="translate(1090,629)" d="m0 0 3 1 1 7-1 25h-2v2l-2-1 1-7z" fill="#8A939A"/>
<path transform="translate(529,310)" d="m0 0h1v35l-1 2h-2v-19l1-4z" fill="#68718C"/>
<path transform="translate(135,655)" d="m0 0 5 1 10 6v1h-6l-5-2 4 6-5-1-3-4z" fill="#9DA4AA"/>
<path transform="translate(417,232)" d="m0 0 9 2 15 9-3 2-5-2-10-6-6-4z" fill="#9EA7AD"/>
<path transform="translate(1281,985)" d="m0 0 2 1-5 4-16 9-9 5-5 3-3-1 18-11 11-6z" fill="#949CA4"/>
<path transform="translate(828,937)" d="m0 0h3v2l-29 17-3 1 1-3 9-6 12-6z" fill="#626E80"/>
<path transform="translate(1325,161)" d="m0 0h3v9l-4 14-3 5-1-2 4-18z" fill="#A99A9F"/>
<path transform="translate(1134,763)" d="m0 0 2 1-8 6-4 2-5 5-6 2-4-1 3-2h4v-2l6-5 11-5z" fill="#737C8E"/>
<path transform="translate(776,217)" d="m0 0h1l1 8v23l-2 3-1-17v-15z" fill="#9BA4AA"/>
<path transform="translate(777,148)" d="m0 0h1l1 8v11l-1 2-1 11h-1l-1-25z" fill="#8BA3A2"/>
<path transform="translate(1073,618)" d="m0 0 5 1 17 10 2-4 1 4 2-2-1 4-1 2-5-2-6-3v-2l-4-1-9-4z" fill="#A0ACB0"/>
<path transform="translate(713,587)" d="m0 0h8l7 3 11 7-1 2-19-10-7 1-7 3v-2z" fill="#1F3E4E"/>
<path transform="translate(1357,556)" d="m0 0 16 2 16 3 1 2-16-1-15-3-2-1z" fill="#ACB8BD"/>
<path transform="translate(1492,436)" d="m0 0 2 1-11 9-6 3-5 2-4-1 13-8z" fill="#334452"/>
<path transform="translate(456,323)" d="m0 0 4 1-10 6-7 6-5 7-1-2 5-9 6-5z" fill="#D5C8C0"/>
<path transform="translate(508,290)" d="m0 0 6 3-1 3v36h-1l-1-33-4-3z" fill="#97A8AA"/>
<path transform="translate(1318,98)" d="m0 0h2l2 13 2 4 4 2-1 5-4 10-1-3 2-7v-4l-4-3-1-3v-12l-3-1z" fill="#9AA7AA"/>
<path transform="translate(427,951)" d="m0 0h7l1 2h-5l-3 5-3 17h-3l4-22z" fill="#9EA4AA"/>
<path transform="translate(576,653)" d="m0 0h2l-1 3-20 11-2 4v-9l6-1 4-3 7-3z" fill="#A8B1B4"/>
<path transform="translate(415,424)" d="m0 0 2 1-3 6-3 2-2 6h-3l-1 4-1-6 6-9z" fill="#F04459"/>
<path transform="translate(517,201)" d="m0 0 7 1v2l6 2 12 9-2 1-13-7-10-7z" fill="#3D4E64"/>
<path transform="translate(487)" d="m0 0h13l3 9-6-2-9-5z" fill="#CDD5D9"/>
<path transform="translate(1320,970)" d="m0 0h2v2l-5 1v2l-16 9-7 4h-2v-2l26-15z" fill="#969EA5"/>
<path transform="translate(920,767)" d="m0 0v3 2l-11 6-10 3 1-3 19-10z" fill="#A7B2B5"/>
<path transform="translate(266,634)" d="m0 0 2 1-11 7-7 4h-2l-1 3-9 3v2l-4 1 1-3 21-12z" fill="#56667E"/>
<path transform="translate(690,619)" d="m0 0 9 3v2l11 2 2 2-9-1-5-2h-6l-1 4h-3v-8h2z" fill="#233140"/>
<path transform="translate(370,576)" d="m0 0 2 1-4 3-7 2-11 7h-3v2l-7 4-3 1v-2h2v-2l11-6 14-8z" fill="#6F7B8E"/>
<path transform="translate(1314,224)" d="m0 0h1l-1 11-3 21-2-4 2-19z" fill="#B4A0A2"/>
<path transform="translate(1208,283)" d="m0 0 2 1-7 5-5 5-8 7-5 5h-3v-2h2v-2l10-8h2l2-4 3-1v-2z" fill="#536377"/>
<path transform="translate(1179,899)" d="m0 0h5l10 8v3l-4-2-10-4z" fill="#4A5B71"/>
<path transform="translate(971,788)" d="m0 0 6 1 8 1-2 1v2h21v1h-26v-2l-7-1-2-2z" fill="#5E6B80"/>
<path transform="translate(591,756)" d="m0 0h6l-1 3-6 5-8 3-4-1 7-4 5-5z" fill="#425267"/>
<path transform="translate(528,441)" d="m0 0 1 3-9 6-4 2h-5v-2h2v-2l8-4 4-1z" fill="#19293A"/>
<path transform="translate(1427,437)" d="m0 0 5 1 4 3-2 13h-3l-1-14-3-1z" fill="#9DA6AC"/>
<path transform="translate(938,728)" d="m0 0h2l1 28 2-2 5-1v8h-1l-1-5-3 3-4 1z" fill="#8BA3A2"/>
<path transform="translate(507,182)" d="m0 0 5 1 7 4-2 5-6-2-4-2z" fill="#3F4F60"/>
<path transform="translate(610,72)" d="m0 0h4l-2 5-10 6-1 6h-1v-7l2-3-2-1 7-4z" fill="#374859"/>
<path transform="translate(646,612)" d="m0 0 2 1-1 3-13 7-4-1 4-4z" fill="#A7B2B5"/>
<path transform="translate(644,581)" d="m0 0h28v1l-7 1h-11l-1 16-2 1v-16h-8l-1-2z" fill="#B8ABA8"/>
<path transform="translate(1095,371)" d="m0 0h8l8 4v2l3 1v3l-4-2-11-6-3 1-3 3 1-5z" fill="#1F404F"/>
<path transform="translate(778,232)" d="m0 0h2v19l-4 2-1-1v-18h1l1 14z" fill="#A2B0B3"/>
<path transform="translate(637,58)" d="m0 0 1 4-5 8h-2v2l-4 1v2l-4 1v2l-2-1 2-3h2v-3l8-7z" fill="#6A758E"/>
<path transform="translate(1288,988)" d="m0 0 4 1-16 10-10 5 1-4 14-8h4v-2z" fill="#99A1A7"/>
<path transform="translate(1324,966)" d="m0 0 2 1-3 3-16 8-6 4h-4v-4l4-3 2 1-2 2 5-2z" fill="#57667E"/>
<path transform="translate(331,597)" d="m0 0 4 1-15 8h-2v2l-6 3h-3v2l-3 1v-2h2l2-4 12-6z" fill="#636F85"/>
<path transform="translate(1062,515)" d="m0 0 11 6 10 6-1 2-12-5v-2l-5-1-1-3-3-1z" fill="#3D4E63"/>
<path transform="translate(791,409)" d="m0 0h3l4 10-1 9-2-2-3-10z" fill="#E6EBF0"/>
<path transform="translate(429,572)" d="m0 0h2l-1 7-8 25-2 7h-1v-7l2-8h2l2-9 4-12z" fill="#CAADA5"/>
<path transform="translate(132,285)" d="m0 0h1l1 11 2 10 4 5 7 4-4 1-5-4-3-1-2-6-1-7z" fill="#878F9C"/>
<path transform="translate(421,918)" d="m0 0h12l3 3h-12l-1 3-5 2-2 3v-5z" fill="#33424B"/>
<path transform="translate(276,631)" d="m0 0 2 1-25 15h-5l4-3 9-6 4-2h4v-2z" fill="#9CA3AA"/>
<path transform="translate(1389,67)" d="m0 0h10v4h-9l-5 2-1 3-3 2-3-1 10-9z" fill="#C2A49F"/>
<path transform="translate(513 1e3)" d="m0 0 1 2-1 23h-3l-1-4v-11l2 2 1-11z" fill="#415267"/>
<path transform="translate(554,987)" d="m0 0 10 2h27l2 2h-35l-1 3-3-5z" fill="#ADB3B7"/>
<path transform="translate(1412,472)" d="m0 0 2 1-2 5-7 3h-6l-8-6 2-1 5 3h8l5-2z" fill="#56657B"/>
<path transform="translate(795,362)" d="m0 0 8 2v2l5 2 6 3v3l-9-3-4-2-6-6z" fill="#3D4E63"/>
<path transform="translate(521,344)" d="m0 0 4 2 1 1v15l-3-3h-1z" fill="#D5D0CF"/>
<path transform="translate(511,54)" d="m0 0h2l3 6v5l-3 2h-3v-12z" fill="#F7F9FA"/>
<path transform="translate(754,981)" d="m0 0 1 2-6 3h-2v2l-9 2h-14v-1l13-2 7-2z" fill="#5D6C86"/>
<path transform="translate(481,826)" d="m0 0 3 1-6 4-15 5-7 1 2-4 7-1 12-4z" fill="#9DA5AA"/>
<path transform="translate(500,807)" d="m0 0 4 1v6l-4 4-8 5-3-1h2v-2l11-7v-2h-6v2l-4-1z" fill="#A5A9AC"/>
<path transform="translate(776,561)" d="m0 0h8l4 3 2 5v3l-4-2v-2h-2v-2l-4-1-1-3z" fill="#394958"/>
<path transform="translate(375,454)" d="m0 0 4 2-18 10h-3l1-3z" fill="#A2ABB0"/>
<path transform="translate(1351,135)" d="m0 0 2 1-5 3-4 1v7l1 5v10l-3 3-2-1 3-3v-8l-3-13z" fill="#D9DEE4"/>
<path transform="translate(1117,968)" d="m0 0 2 1 1 2-18 10v-3l8-6z" fill="#A4B1B4"/>
<path transform="translate(1348,946)" d="m0 0 2 1-7 6h-3v2l-16 8-3 1v-2l13-8h4v-2l6-2z" fill="#858D9A"/>
<path transform="translate(977,754)" d="m0 0 1 2 5 2 5 4 6 3 5 1-4 2-10-4v-2l-6-2-6-3z" fill="#86949B"/>
<path transform="translate(1447,499)" d="m0 0 4 2 5 5 1 3h2l1 3-1 5h-2v6h-1l-2-15-7-8z" fill="#334452"/>
<path transform="translate(831,466)" d="m0 0 9 5 15 10 2 1-1 3-2-1-5-4-9-6-7-4-4-1v-2z" fill="#98AAAC"/>
<path transform="translate(1154,382)" d="m0 0 3 1-5 5-8 5-4 5-2-1 6-8z" fill="#2E414A"/>
<path transform="translate(1315,339)" d="m0 0 11 1h4l1 5-3 1-11-3z" fill="#EBF6FB"/>
<path transform="translate(425,723)" d="m0 0 2 2 2 9 8 7 5 6-4-2-6-6-3 1-2-5-3-7z" fill="#9498A3"/>
<path transform="translate(774,615)" d="m0 0 4 1-23 13-5 1 3-3 9-5h2v-2l7-3z" fill="#455469"/>
<path transform="translate(1324,303)" d="m0 0h2l1 18-4 6-5 4 2-4 3-4 1-5z" fill="#CFAFA5"/>
<path transform="translate(592,993)" d="m0 0h1v6l-8 7-7 8h-2v2l-2-1 7-9h2l2-4 5-4h2z" fill="#435466"/>
<path transform="translate(1448,890)" d="m0 0v3l-5 5-2 3-5 1 6-7-8 5-2-1 3-3 5-3z" fill="#627085"/>
<path transform="translate(1064,657)" d="m0 0 8 4 1 10 2 2-6 2-1-13z" fill="#9FAFB2"/>
<path transform="translate(527,347)" d="m0 0 1 2 5 1 1 5-5 4h-2z" fill="#91A4A5"/>
<path transform="translate(490,813)" d="m0 0 4 1-4 4-10 4-6 3-2-1 7-4h2l1-3 7-3z" fill="#656E85"/>
<path transform="translate(1017,782)" d="m0 0 3 1-12 4-5 1-20-1 1-2h18l12-2z" fill="#3E4F65"/>
<path transform="translate(1152,751)" d="m0 0h4l-1 3-11 6-6 3-4-1 6-4 6-3 5-2z" fill="#45556A"/>
<path transform="translate(602,749)" d="m0 0 2 1-4 5 8-4 2 1-10 6h-2l-1 3-4-1 3-1v-2l-3-2 5-2z" fill="#5D6A7F"/>
<path transform="translate(1413,551)" d="m0 0h4l-1 9-3 3-7 3 1-4 6-3v-2l-2-2-3-1z" fill="#334651"/>
<path transform="translate(1327,526)" d="m0 0 3 1-10 6-4 1-3 3-7 2 3-3 4-1v-3l5-3 8-2z" fill="#94A0AB"/>
<path transform="translate(585,445)" d="m0 0 2 1-4 5 4 1-7 5-7 2 3-5 4-2v-3z" fill="#374657"/>
<path transform="translate(508,962)" d="m0 0 4 2v1l-7 2-4 3-2 4-1 13h-1v-15l4-6z" fill="#9CA0A7"/>
<path transform="translate(1288,377)" d="m0 0v3l-4 4h-2l-1 5-1 19h-1v-23l4-5z" fill="#59687C"/>
<path transform="translate(1146,358)" d="m0 0h8l-1 4-5 3-5-2 1-3h2z" fill="#11435B"/>
<path transform="translate(925,882)" d="m0 0 3 1-15 9-7 4h-2v-2h3l1-3 6-1 1-3h4l1-3z" fill="#6B788C"/>
<path transform="translate(996,839)" d="m0 0h2l-2 4-11 6h-5l4-4z" fill="#A9B2B6"/>
<path transform="translate(1397,561)" d="m0 0 5 3v5h-3v2h-4v-9z" fill="#2A3746"/>
<path transform="translate(1395,465)" d="m0 0h5l11 7-2 4-3 2h-8l-3-3 9 1 3-2v-2l-12-6z" fill="#8E9CA0"/>
<path transform="translate(1329,118)" d="m0 0 5 1 3 9 2 12-7 6 1-4 3-1-1-10-2-10-3-2-1 2z" fill="#DDE2E7"/>
<path transform="translate(1043,717)" d="m0 0h8l7 3 2 2-1 3-6-2-4-3-6-2z" fill="#344552"/>
<path transform="translate(1257,1009)" d="m0 0 2 1-23 13-6 2 1-3 9-4 14-8z" fill="#C7CFD3"/>
<path transform="translate(695,980)" d="m0 0h10l3 2 25 2v1h-13l-15-1-10-3z" fill="#919CA2"/>
<path transform="translate(419,956)" d="m0 0h1v5h3l1-5 1 2-2 11h-2l-1 4h-1z" fill="#405165"/>
<path transform="translate(514,308)" d="m0 0h1l1 15v12l-4-1z" fill="#75778E"/>
<path transform="translate(1327,968)" d="m0 0m-1 1m-4 1h4l-1 3-14 8-2-1 6-5h2v-2l5-1z" fill="#CCD4D8"/>
<path transform="translate(950,703)" d="m0 0 5 1-1 6h-2v2l-5-1 1-6z" fill="#A1B0B3"/>
<path transform="translate(257,529)" d="m0 0h1l1 26h4l6-2-3 3-6 3-3-1z" fill="#E5E8EE"/>
<path transform="translate(333,478)" d="m0 0h3v3l-14 8-4-1 7-4 3-3z" fill="#A5B1B4"/>
<path transform="translate(1091,382)" d="m0 0 1 3 18-1v2l-4 2h-12l-3-2z" fill="#0C405A"/>
<path transform="translate(885,231)" d="m0 0 2 1-8 5-5 4 2 1v3l-7 3 2-7 7-6z" fill="#405167"/>
<path transform="translate(609,746)" d="m0 0h4v3l-12 7-2-1 2-3h2l1-3z" fill="#3E4E62"/>
<path transform="translate(243,642)" d="m0 0 2 1-14 9-10 5-2-1z" fill="#989FA7"/>
<path transform="translate(1377,481)" d="m0 0 5 1 10 7v2l-5 1-3-5-6-3z" fill="#2C3C48"/>
<path transform="translate(1425,443)" d="m0 0h2l1 3 1 11 3 2-5 1-2-8-1-5v-3z" fill="#5E6D8B"/>
<path transform="translate(1052,410)" d="m0 0 5 5-10 2-3-1 2-5 4 1z" fill="#E5E8EE"/>
<path transform="translate(1179,365)" d="m0 0h2v6l-5 5 2-6-7 7-4 1 5-6h2l2-4z" fill="#23404C"/>
<path transform="translate(907,741)" d="m0 0 7 1 2 4h-4l1 3-6-2z" fill="#4F5E74"/>
<path transform="translate(553,87)" d="m0 0 9 1 13 2 2 2-17-1-4-1v-2z" fill="#AEB9BE"/>
<path transform="translate(959,776)" d="m0 0 6 2 2 2-2 1-1 5-5-2z" fill="#222F3E"/>
<path transform="translate(449,752)" d="m0 0 5 1 5 3v2l12 3 1 3-5-1-14-7z" fill="#6C6E81"/>
<path transform="translate(795,595)" d="m0 0h3l-2 4-15 8-5 1 3-3 13-7 3-1z" fill="#132536"/>
<path transform="translate(631,418)" d="m0 0h5l-1 7-5 6-7 4-2-1 9-7 3-5 1-3-4 1z" fill="#8A999F"/>
<path transform="translate(632,421)" d="m0 0 2 1-3 5-7 6-5 3-2-1 3-1 2-4 5-3z" fill="#6F7187"/>
<path transform="translate(1170,344)" d="m0 0 6 1v1h-5v2l-11 4-6 4h-2v-2l17-9z" fill="#9CAEAD"/>
<path transform="translate(1130,333)" d="m0 0h5l2 3-1 4-6 2 2-6h-7l-2-2z" fill="#77808F"/>
<path transform="translate(1320,65)" d="m0 0 4 2-1 7-1 2h-3l-1-6z" fill="#CFACA3"/>
<path transform="translate(1012,779)" d="m0 0h5l-1 3-11 3h-6v-2z" fill="#293744"/>
<path transform="translate(474,642)" d="m0 0 12 1 13 2v1h-13l-12-2z" fill="#132536"/>
<path transform="translate(832,622)" d="m0 0 3 1-10 6h-2v2l-7 4-2-1 4-2v-2l4-1v-2z" fill="#435365"/>
<path transform="translate(908,573)" d="m0 0h3v7l-4 1-5 6h-2l2-4 4-6v-3z" fill="#8A999F"/>
<path transform="translate(447,326)" d="m0 0 2 1-7 6-8 10-3 3 2-6 5-7h2v-2z" fill="#949CA3"/>
<path transform="translate(459,818)" d="m0 0h1v6l13-1-1 2-15 3 1-9z" fill="#A0A8AD"/>
<path transform="translate(986,746)" d="m0 0 6 1 4 4-6-2-6 1-8 6-3-1 10-7z" fill="#97A9AB"/>
<path transform="translate(721,682)" d="m0 0h3l-1 4-8 5h-3l1-4z" fill="#ABB3B7"/>
<path transform="translate(752,622)" d="m0 0 4 1-1 1 2 2-9 3-2-2-4-1 7-1v-2z" fill="#516179"/>
<path transform="translate(630,592)" d="m0 0 4 2 7 2 3 1 1-3 2 4-1 2h-5l-1-3h-6l-5-4z" fill="#877E90"/>
<path transform="translate(634,586)" d="m0 0h5l11 8v2l-16-8z" fill="#415267"/>
<path transform="translate(1089,468)" d="m0 0h3v38h-1l-1-35h-2z" fill="#9FABAF"/>
<path transform="translate(1126,359)" d="m0 0 7 3 6 5v2l-6-1-7-7z" fill="#0C4059"/>
<path transform="translate(471,262)" d="m0 0 5 1 8 5 3 4-4-1-3-1v-2l-9-3z" fill="#939AA2"/>
<path transform="translate(576,1010)" d="m0 0 2 1-4 5-7 3-10 1 1-2 6-1 8-4z" fill="#2E424B"/>
<path transform="translate(420,613)" d="m0 0 4 2 9 7h-3l-4 1v-2l-4-2-2-3z" fill="#402D2C"/>
<path transform="translate(770,609)" d="m0 0 4 1-5 4-11 6-5 1 3-3 8-5h3v-2h3z" fill="#1C2B3B"/>
<path transform="translate(619,435)" d="m0 0 2 1-14 8-6 3-3-1 6-4 7-3 4-3z" fill="#8F999F"/>
<path transform="translate(517,414)" d="m0 0h3l4 7-1 4v-2l-4-2v-2l-5-2z" fill="#3E4E5C"/>
<path transform="translate(612,750)" d="m0 0 4 1-15 9h-3v-2z" fill="#99A1A8"/>
<path transform="translate(815,368)" d="m0 0 4 2 2 6v6l-4-4-3-9z" fill="#132536"/>
<path transform="translate(1318,204)" d="m0 0 1 3-3 15-3 3 1-9 2-9z" fill="#BBA6A4"/>
<path transform="translate(1201,1037)" d="m0 0 2 1-3 3-16 8-2-1z" fill="#657287"/>
<path transform="translate(1369,941)" d="m0 0 4 1-15 9-4 2-3-1 9-5z" fill="#9BA5AA"/>
<path transform="translate(569,775)" d="m0 0h4v2l-16 8-2-1 8-6z" fill="#A8B1B6"/>
<path transform="translate(1093,785)" d="m0 0 4 1-10 7-7 1 3-2h2l1-3z" fill="#425264"/>
<path transform="translate(1026,783)" d="m0 0m-3 1h3l-1 3-9 4h-5l3-3z" fill="#415268"/>
<path transform="translate(427,621)" d="m0 0 4 1 7 3v5l-4-2-6-4z" fill="#2C2D36"/>
<path transform="translate(774,607)" d="m0 0h8v6l-3 2-4-1 2-1-1-3-4-2z" fill="#2C3C4A"/>
<path transform="translate(800,591)" d="m0 0h2v10l-8 5v-3h2v-2l3-2z" fill="#2F3E51"/>
<path transform="translate(751,575)" d="m0 0h5l3 4-2 4-5-3z" fill="#5CA987"/>
<path transform="translate(506,967)" d="m0 0 3 1-3 1v2l-5 5v12l1 2-3-1v-14l4-6z" fill="#30434D"/>
<path transform="translate(1049,765)" d="m0 0h2l-1 6-4-1-6 3-4-1 5-3h4v-2z" fill="#48596C"/>
<path transform="translate(146,663)" d="m0 0h5l3 2 9 2 5 2-4 1-12-3-6-3z" fill="#8F969E"/>
<path transform="translate(796,502)" d="m0 0 3 1 1 13 2 1-6 1 1-14z" fill="#9DAEB0"/>
<path transform="translate(480,484)" d="m0 0 3 1-10 5h-6l-7-2v-1h12z" fill="#EE4358"/>
<path transform="translate(1399,468)" d="m0 0 6 2 3 2-2 4-5 1v-2h2l-4-5z" fill="#A6B1B5"/>
<path transform="translate(809,428)" d="m0 0 1 2v6l-6-1-2-3 1-3h4z" fill="#E1E4EA"/>
<path transform="translate(810,397)" d="m0 0h1l-1 21-3-1v-7l2-6z" fill="#773012"/>
<path transform="translate(1299,324)" d="m0 0h2l1 13 5 5-6-2-2-3z" fill="#9CA7AB"/>
<path transform="translate(253,278)" d="m0 0 3 1v7h-1v-6l-11 7-5 1 2-1v-2l11-6z" fill="#2E424A"/>
<path transform="translate(1214,1025)" d="m0 0h2v2l4 1-5 2v2l-8 4-2-1 6-4h2v-3l-2-1h3z" fill="#4E5D74"/>
<path transform="translate(1230,1020)" d="m0 0 2 1-2 4-9 4-2-1 4-4z" fill="#768191"/>
<path transform="translate(811,945)" d="m0 0m-1 1m-4 1 4 1-5 4-7 4v-3l3-4h5z" fill="#415268"/>
<path transform="translate(862,913)" d="m0 0 4 1-5 6-6 1 2-4h2l1-3z" fill="#4E5C71"/>
<path transform="translate(409,813)" d="m0 0 4 2 1 6h-4l-2-1v-6z" fill="#9199A1"/>
<path transform="translate(1028,778)" d="m0 0 2 1-2 4-10 4v-4z" fill="#596882"/>
<path transform="translate(1054,497)" d="m0 0 5 3-2 1 1 2 3 1v2l-7-1-1-1z" fill="#3B4B5C"/>
<path transform="translate(563,467)" d="m0 0 2 1-16 10-4 1 3-4 11-6z" fill="#90A3A4"/>
<path transform="translate(525,426)" d="m0 0 4 4 1 2v11h-1l-1-9-3 3z" fill="#495767"/>
<path transform="translate(795,406)" d="m0 0 2 1 3 8v7h-2l-4-11z" fill="#DBA89D"/>
<path transform="translate(1156,389)" d="m0 0 2 1-11 8-1 4-3 1 2-7 9-6z" fill="#3E4F65"/>
<path transform="translate(680,970)" d="m0 0 3 1v2h-2l4 6 5 4v2l-5-2-5-6z" fill="#9AA6AA"/>
<path transform="translate(417,953)" d="m0 0 2 2 1 17 2-3-1 7h-3z" fill="#646D86"/>
<path transform="translate(853,920)" d="m0 0v3l-9 6-8 4-2-1 9-6h2v-2l7-3z" fill="#3F5065"/>
<path transform="translate(1013,828)" d="m0 0h3l-1 3-8 5h-3l2-4z" fill="#ACB3B7"/>
<path transform="translate(629,740)" d="m0 0 2 1-5 5-8 4-2-1 4-4z" fill="#979FA6"/>
<path transform="translate(764,572)" d="m0 0 4 1 1 1v6l-4 7h-1v-6l2-7z" fill="#1F3445"/>
<path transform="translate(1064,503)" d="m0 0 6 3v3l1 4h-2v-2l-4-1-2-4z" fill="#3A4B5D"/>
<path transform="translate(812,362)" d="m0 0 9 3 1-2 2 2v3h-7l-5-4z" fill="#3D4E64"/>
<path transform="translate(1322,125)" d="m0 0 1 4-4 16h-1l-1-7z" fill="#97A8AA"/>
<path transform="translate(635,53)" d="m0 0h1v8l-4 1v2l-2-1 1-2-2-1 4-5h2z" fill="#394A5A"/>
<path transform="translate(1449,887)" d="m0 0h2l-1 7-1 3-6 3-2-1 5-4 2-4-3-1z" fill="#8C909B"/>
<path transform="translate(948,864)" d="m0 0h2v7l-12 6v-3l7-2v-2l3-1 1-3-3-1z" fill="#838C9C"/>
<path transform="translate(900,743)" d="m0 0 4 2v3l4 3-7-1v7h-1l-1-9-2-3 4 1z" fill="#90A0A3"/>
<path transform="translate(1510,415)" d="m0 0 2 1-1 5-6 3h-6l4-1v-2l3-2h4z" fill="#536378"/>
<path transform="translate(1246,244)" d="m0 0h1v6l-6 8h-2l-2 4-2 1 2-4 4-6 2-1z" fill="#526276"/>
<path transform="translate(547,200)" d="m0 0 6 3 1 5-5-2-6-4 2-1 2 1z" fill="#D0D5DB"/>
<path transform="translate(1371,58)" d="m0 0h1l1 11 3 6 3 2-4 1-3-4-2-7z" fill="#AF989A"/>
<path transform="translate(1089,790)" d="m0 0h2v2l-8 5-9 1 4-4 9-2z" fill="#828D96"/>
<path transform="translate(998,782)" d="m0 0h6v1h-5v2l3 1-17-1v-1z" fill="#2E424A"/>
<path transform="translate(507,769)" d="m0 0 2 1 25 1-3 2-25-1-3-2z" fill="#33424D"/>
<path transform="translate(1061,758)" d="m0 0h5l-4 3-8 4h-2v4l2 1h-3l-1-6z" fill="#283542"/>
<path transform="translate(669,717)" d="m0 0h3l-1 3-7 3-7 4-3-1z" fill="#9EA6AC"/>
<path transform="translate(752,619)" d="m0 0 2 1v2l-5 1v2l-8 1 1-3z" fill="#293644"/>
<path transform="translate(1411,554)" d="m0 0 4 4-5 4-4 1 2-7z" fill="#273241"/>
<path transform="translate(509,285)" d="m0 0 6 3 3 6-6-1-3-6z" fill="#192B3C"/>
<path transform="translate(503,98)" d="m0 0 8 2-1 2h-11l-2-3z" fill="#E5E8EE"/>
<path transform="translate(1307,656)" d="m0 0 2 1-1 2 10-1 10-2-1 2-6 2h-15z" fill="#797D8E"/>
<path transform="translate(840,621)" d="m0 0 3 1-4 4-9 6-3-1 7-4 5-5z" fill="#868C9A"/>
<path transform="translate(1451,526)" d="m0 0 1 3-7 7-5-1 4-4 6-4z" fill="#334452"/>
<path transform="translate(1133,401)" d="m0 0 3 3-2 3-5 1-1-4z" fill="#273241"/>
<path transform="translate(1337,143)" d="m0 0 3 1 1 6-3-3-4 2-8 6 2-4z" fill="#877E90"/>
<path transform="translate(1169,1055)" d="m0 0 4 1-12 6 1-6z" fill="#647084"/>
<path transform="translate(506,1007)" d="m0 0h1l3 18-1 3-1-1v-7h-2z" fill="#9397A0"/>
<path transform="translate(851,920)" d="m0 0 2 1-5 3h-3v2l-8 5-3-1 5-2v-2l7-4z" fill="#687588"/>
<path transform="translate(940,772)" d="m0 0h9l1 5-1 4h-8v-1h6v-6l-7-1z" fill="#94A6A7"/>
<path transform="translate(646,726)" d="m0 0h2v3l-7 4-4-1 6-5z" fill="#374958"/>
<path transform="translate(744,575)" d="m0 0 3 1v3h-2v2l5 2 6 3-2 1-7-3-4-3z" fill="#0C4059"/>
<path transform="translate(1456,544)" d="m0 0h1v20h2l1 4h-4z" fill="#334452"/>
<path transform="translate(343,472)" d="m0 0 2 1 1 2-8 5h-2v-2l-2-1z" fill="#A9B2B6"/>
<path transform="translate(1427,441)" d="m0 0h2l1 14v2l3 1-5-1-1-11-1-4z" fill="#877E90"/>
<path transform="translate(1171,346)" d="m0 0h6l3 4-1 2-2-2h-11l1-2h4z" fill="#626F82"/>
<path transform="translate(1190,1039)" d="m0 0 2 1v3l-7 4h-2v-4z" fill="#3F5064"/>
<path transform="translate(762,978)" d="m0 0 3 1-17 9-1-2 6-3h2l1-3z" fill="#9197A3"/>
<path transform="translate(1165,941)" d="m0 0 2 1-4 4-7 4-4-1z" fill="#A4B1B4"/>
<path transform="translate(1446,897)" d="m0 0 3 1-14 9-1-2 4-4z" fill="#A3AAB0"/>
<path transform="translate(220,664)" d="m0 0 3 1-13 7h-2v-3z" fill="#A8B1B6"/>
<path transform="translate(405,549)" d="m0 0 2 1v5h-3l1-3-9 4-2-1z" fill="#969DA6"/>
<path transform="translate(516,296)" d="m0 0 5 1 8 5-1 2-6-3-5-1z" fill="#9DA9AE"/>
<path transform="translate(565,1021)" d="m0 0h5l-3 3-3 1h-7l-4-2 10-1z" fill="#A6AFB3"/>
<path transform="translate(1136,957)" d="m0 0h4l-1 3-5 3-4-1 4-4z" fill="#A0ABAF"/>
<path transform="translate(427,951)" d="m0 0h7l1 2h-5l-4 6-2 1 1-7z" fill="#9399A3"/>
<path transform="translate(813,941)" d="m0 0 2 1-3 1-2 4h-4v2l-3 1-2-2z" fill="#7A8593"/>
<path transform="translate(1175,911)" d="m0 0 8 1 1 3-1 1h-6l-2-2z" fill="#536378"/>
<path transform="translate(1153,887)" d="m0 0 6 2 11 6v2l-6-2-11-7z" fill="#9AACAE"/>
<path transform="translate(1021,779)" d="m0 0h5l-4 3-12 3h-5l3-2z" fill="#334552"/>
<path transform="translate(675,707)" d="m0 0 3 1-1 7-5 1 3-3 1-3-6 1 3-3z" fill="#949BA4"/>
<path transform="translate(245,646)" d="m0 0h3l-1 3-9 3v2l-4 1 1-3z" fill="#646E86"/>
<path transform="translate(1357,556)" d="m0 0 11 1v2l3 1h-9l-5-2z" fill="#B9C4C7"/>
<path transform="translate(1051,493)" d="m0 0 7 2 4 4-2 1-8-4z" fill="#E4E9EE"/>
<path transform="translate(779,446)" d="m0 0 6 3v3l1 3h-3l-3-1z" fill="#5DA687"/>
<path transform="translate(1325,116)" d="m0 0 3 1-1 5-4 10-1-3z" fill="#A2ACAF"/>
<path transform="translate(505,13)" d="m0 0h1l1 15-3 1v-15z" fill="#8DA3A3"/>
<path transform="translate(598,639)" d="m0 0 3 1-1 3-7 3-1-3z" fill="#AEB4B8"/>
<path transform="translate(676,622)" d="m0 0 7 5 6 2-4 1-7-3-3-2z" fill="#97ADAC"/>
<path transform="translate(786,606)" d="m0 0h4l-2 4-4 2-3-1 1-3z" fill="#1A2C3C"/>
<path transform="translate(402,552)" d="m0 0h3l-1 4-7 3v-3z" fill="#536379"/>
<path transform="translate(1435,441)" d="m0 0 3 1h-2v12l-2 3h-4v-3h3z" fill="#89939A"/>
<path transform="translate(528,81)" d="m0 0 15 3-4 2-8-1-3-2z" fill="#B0BDC0"/>
<path transform="translate(496,975)" d="m0 0h1l1 12 2 6-3-1-2-7z" fill="#A5ABB1"/>
<path transform="translate(809,948)" d="m0 0h2v3l-10 6h-2l1-3z" fill="#657285"/>
<path transform="translate(1383,933)" d="m0 0 2 1-4 4-6 3-4-1z" fill="#969EA5"/>
<path transform="translate(422,915)" d="m0 0 8 1 2 2-11 1h-3z" fill="#666D7F"/>
<path transform="translate(947,761)" d="m0 0h1v8l-5-3-1-4 5 1z" fill="#5A6983"/>
<path transform="translate(947,753)" d="m0 0h1v8h-1l-1-5-3 3-4 1v-3l4-3z" fill="#81929A"/>
<path transform="translate(629,736)" d="m0 0 1 3-5 3h-5l5-5z" fill="#3A4B5D"/>
<path transform="translate(849,710)" d="m0 0 7 3 5 4-1 2-11-7z" fill="#9EAEB1"/>
<path transform="translate(1014,706)" d="m0 0 4 2 3 4-8-1-2-1v-2z" fill="#E2E7E9"/>
<path transform="translate(591,643)" d="m0 0 2 1-2 4-4 2-4-1z" fill="#AAB3B6"/>
<path transform="translate(307,610)" d="m0 0 1 2h-2v2l-9 6h-5l5-4 7-4z" fill="#58667D"/>
<path transform="translate(867,603)" d="m0 0 5 1-5 4-4 1v-4z" fill="#8B99A0"/>
<path transform="translate(748,518)" d="m0 0h3v2l-3-1zm-3 1 3 1-4 4-5-1 3-3z" fill="#A4B1B4"/>
<path transform="translate(1074,505)" d="m0 0 8 2v3l-5 1-2-1z" fill="#D6DBE1"/>
<path transform="translate(1057,501)" d="m0 0 6 1 2 4h-2l-1 2-5-1 4-1v-2l-4-1z" fill="#2F3F4C"/>
<path transform="translate(553,471)" d="m0 0 2 1-9 6-4 1v-3z" fill="#7E798C"/>
<path transform="translate(790,208)" d="m0 0 2 1-2 2 1 11-2-1-3-7v-4z" fill="#687486"/>
<path transform="translate(527,194)" d="m0 0 7 1 1 2h-5l-1 1h-6l-3-3 4 1 3 1z" fill="#3D505B"/>
<path transform="translate(558,992)" d="m0 0h1v9l-2 2h-6l-3-3h8l1-1z" fill="#877E90"/>
<path transform="translate(1310,978)" d="m0 0m-1 1m-3 1h3l-1 3-10 5 2-4z" fill="#CED6DA"/>
<path transform="translate(515,968)" d="m0 0 4 1 10 10-1 2-8-8z" fill="#AE979A"/>
<path transform="translate(865,799)" d="m0 0 2 1 1 2-7 4-3-1v-2z" fill="#A9B2B6"/>
<path transform="translate(952,769)" d="m0 0 5 2 1 4 1 1v7h-1l-2-7-4-4z" fill="#364757"/>
<path transform="translate(226,659)" d="m0 0h2v3l-12 5-2-1z" fill="#96A0A6"/>
<path transform="translate(1069,613)" d="m0 0 7 1 4 5-5-1-6-3z" fill="#1B2D3D"/>
<path transform="translate(1085,515)" d="m0 0 9 5 1 2-12-1v-2h4v-2h-2z" fill="#3B4B5A"/>
<path transform="translate(1436,394)" d="m0 0h7l1 2-7 4-2-1z" fill="#E9ECF0"/>
<path transform="translate(518,51)" d="m0 0 2 1-2 2v6h-3l-2-3 1-4z" fill="#6A788A"/>
<path transform="translate(734,987)" d="m0 0h7l-3 3h-14v-1z" fill="#536379"/>
<path transform="translate(1185,928)" d="m0 0 4 1-4 4-4 1-1-3z" fill="#A6B1B5"/>
<path transform="translate(451,914)" d="m0 0 4 3h7v1l-7 2-5-1z" fill="#ABB2B6"/>
<path transform="translate(920,767)" d="m0 0v3 2l-5 3h-2l-1-3z" fill="#A9B2B6"/>
<path transform="translate(977,754)" d="m0 0 1 2 5 2 2 2-4 1-8-4z" fill="#71768C"/>
<path transform="translate(576,653)" d="m0 0h2l-1 3-7 4-4-1z" fill="#A5B1B4"/>
<path transform="translate(1073,618)" d="m0 0 5 1 7 4-2 2-9-4z" fill="#96A6AA"/>
<path transform="translate(347,587)" d="m0 0h2v2h-2v2l-7 4-3 1v-2h2v-2z" fill="#606D84"/>
<path transform="translate(304,496)" d="m0 0 3 1-9 6-3-1 4-4z" fill="#A8B2B5"/>
<path transform="translate(1048,375)" d="m0 0 2 2-3 12h-1v-12z" fill="#A4B1B4"/>
<path transform="translate(139,301)" d="m0 0 5 2 4 2 1 3-5-1-5-5z" fill="#30424E"/>
<path transform="translate(234,294)" d="m0 0 1 3 3 1-6 1-1-1-7 2 3-3z" fill="#3E4F65"/>
<path transform="translate(1328,204)" d="m0 0h1l-1 19h-1l-1-13z" fill="#D5B9AC"/>
<path transform="translate(1311,101)" d="m0 0 3 1-7 4-5 3-3-1 10-6z" fill="#93909D"/>
<path transform="translate(1172,1049)" d="m0 0 2 1-2 3h-2l-1 3-4 1 3-6z" fill="#455566"/>
<path transform="translate(1198,1036)" d="m0 0 1 3-5 3-4-1 4-4z" fill="#3A4B5D"/>
<path transform="translate(526 1e3)" d="m0 0 5 2 4 3v3l-4-2-5-5z" fill="#9EA4AB"/>
<path transform="translate(1333,962)" d="m0 0 2 1-4 4-5 3-3-1 5-4z" fill="#98A1A7"/>
<path transform="translate(1394,927)" d="m0 0 4 1-12 7-2-1 4-3h2v-2z" fill="#A0A8AD"/>
<path transform="translate(869,914)" d="m0 0 3 1-14 8-1-2 6-4z" fill="#697689"/>
<path transform="translate(490,813)" d="m0 0 4 1-2 3-11 2 3-3 5-2z" fill="#828C99"/>
<path transform="translate(938,765)" d="m0 0 9 4v2h-6l-3-2z" fill="#CDD5D9"/>
<path transform="translate(860,607)" d="m0 0 3 1-2 5h-5l1-4z" fill="#8A939D"/>
<path transform="translate(669,599)" d="m0 0h3v2l-5 2-2 2h-3l1-4z" fill="#5CA487"/>
<path transform="translate(585,445)" d="m0 0 2 1-4 5 4 1-1 1h-5l-1-5z" fill="#354252"/>
<path transform="translate(1102,373)" d="m0 0 6 2 6 3v3l-4-2-8-5z" fill="#0E4058"/>
<path transform="translate(1312,329)" d="m0 0 7 2-3 4-4-1z" fill="#A699A0"/>
<path transform="translate(1325,230)" d="m0 0 2 1-1 11h-2v-11z" fill="#D5B1A4"/>
<path transform="translate(1364,170)" d="m0 0 1 4-3 6h-2l1-7z" fill="#91A5A5"/>
<path transform="translate(1224,1021)" d="m0 0h2l-1 3-5 3h-4v-3z" fill="#3A4B5E"/>
<path transform="translate(451,933)" d="m0 0 4 2 1 5-6-1-1-4 5 3z" fill="#837C8E"/>
<path transform="translate(551,780)" d="m0 0 1 3 6-3 2 1-5 4-4 1-1-5z" fill="#6E7489"/>
<path transform="translate(847,615)" d="m0 0h6l-5 4-4 2v-3z" fill="#94A1A7"/>
<path transform="translate(751,571)" d="m0 0h6l-2 2-4 2h-6l2-3z" fill="#263542"/>
<path transform="translate(1419,551)" d="m0 0 2 1-3 2 3 2-4 4-2-3 2-5z" fill="#405067"/>
<path transform="translate(1453,533)" d="m0 0 1 4-8 6-2-1z" fill="#5F6D8B"/>
<path transform="translate(790,349)" d="m0 0 5 1 3 2v3l-6-2z" fill="#3C4D62"/>
<path transform="translate(498,821)" d="m0 0" fill="#CDD5D9"/>
</svg>
